%TF.GenerationSoftware,KiCad,Pcbnew,7.0.7*%
%TF.CreationDate,2024-03-08T17:36:48-05:00*%
%TF.ProjectId,MemcardBreakout,4d656d63-6172-4644-9272-65616b6f7574,rev?*%
%TF.SameCoordinates,Original*%
%TF.FileFunction,Drillmap*%
%TF.FilePolarity,Positive*%
%FSLAX45Y45*%
G04 Gerber Fmt 4.5, Leading zero omitted, Abs format (unit mm)*
G04 Created by KiCad (PCBNEW 7.0.7) date 2024-03-08 17:36:48*
%MOMM*%
%LPD*%
G01*
G04 APERTURE LIST*
%ADD10C,0.127000*%
%ADD11C,0.200000*%
G04 APERTURE END LIST*
D10*
X12854686Y-9042781D02*
X13434822Y-9042781D01*
X15274798Y-10546715D02*
X15274798Y-9042781D01*
X13434822Y-9042781D02*
X13434822Y-10546715D01*
X15854680Y-5592699D02*
X12854686Y-5592699D01*
X13434822Y-10546715D02*
X15274798Y-10546715D01*
X12854686Y-5592699D02*
X12854686Y-9042781D01*
X15274798Y-9042781D02*
X15854680Y-9042781D01*
X15854680Y-9042781D02*
X15854680Y-5592699D01*
D11*
X13109113Y-10864549D02*
X13109113Y-10664549D01*
X13109113Y-10664549D02*
X13156732Y-10664549D01*
X13156732Y-10664549D02*
X13185303Y-10674073D01*
X13185303Y-10674073D02*
X13204351Y-10693120D01*
X13204351Y-10693120D02*
X13213875Y-10712168D01*
X13213875Y-10712168D02*
X13223398Y-10750263D01*
X13223398Y-10750263D02*
X13223398Y-10778835D01*
X13223398Y-10778835D02*
X13213875Y-10816930D01*
X13213875Y-10816930D02*
X13204351Y-10835977D01*
X13204351Y-10835977D02*
X13185303Y-10855025D01*
X13185303Y-10855025D02*
X13156732Y-10864549D01*
X13156732Y-10864549D02*
X13109113Y-10864549D01*
X13309113Y-10864549D02*
X13309113Y-10731215D01*
X13309113Y-10769311D02*
X13318637Y-10750263D01*
X13318637Y-10750263D02*
X13328160Y-10740739D01*
X13328160Y-10740739D02*
X13347208Y-10731215D01*
X13347208Y-10731215D02*
X13366256Y-10731215D01*
X13432922Y-10864549D02*
X13432922Y-10731215D01*
X13432922Y-10664549D02*
X13423398Y-10674073D01*
X13423398Y-10674073D02*
X13432922Y-10683596D01*
X13432922Y-10683596D02*
X13442446Y-10674073D01*
X13442446Y-10674073D02*
X13432922Y-10664549D01*
X13432922Y-10664549D02*
X13432922Y-10683596D01*
X13556732Y-10864549D02*
X13537684Y-10855025D01*
X13537684Y-10855025D02*
X13528160Y-10835977D01*
X13528160Y-10835977D02*
X13528160Y-10664549D01*
X13661494Y-10864549D02*
X13642446Y-10855025D01*
X13642446Y-10855025D02*
X13632922Y-10835977D01*
X13632922Y-10835977D02*
X13632922Y-10664549D01*
X13890065Y-10864549D02*
X13890065Y-10664549D01*
X13890065Y-10664549D02*
X13956732Y-10807406D01*
X13956732Y-10807406D02*
X14023398Y-10664549D01*
X14023398Y-10664549D02*
X14023398Y-10864549D01*
X14204351Y-10864549D02*
X14204351Y-10759787D01*
X14204351Y-10759787D02*
X14194827Y-10740739D01*
X14194827Y-10740739D02*
X14175779Y-10731215D01*
X14175779Y-10731215D02*
X14137684Y-10731215D01*
X14137684Y-10731215D02*
X14118637Y-10740739D01*
X14204351Y-10855025D02*
X14185303Y-10864549D01*
X14185303Y-10864549D02*
X14137684Y-10864549D01*
X14137684Y-10864549D02*
X14118637Y-10855025D01*
X14118637Y-10855025D02*
X14109113Y-10835977D01*
X14109113Y-10835977D02*
X14109113Y-10816930D01*
X14109113Y-10816930D02*
X14118637Y-10797882D01*
X14118637Y-10797882D02*
X14137684Y-10788358D01*
X14137684Y-10788358D02*
X14185303Y-10788358D01*
X14185303Y-10788358D02*
X14204351Y-10778835D01*
X14299589Y-10731215D02*
X14299589Y-10931215D01*
X14299589Y-10740739D02*
X14318637Y-10731215D01*
X14318637Y-10731215D02*
X14356732Y-10731215D01*
X14356732Y-10731215D02*
X14375779Y-10740739D01*
X14375779Y-10740739D02*
X14385303Y-10750263D01*
X14385303Y-10750263D02*
X14394827Y-10769311D01*
X14394827Y-10769311D02*
X14394827Y-10826454D01*
X14394827Y-10826454D02*
X14385303Y-10845501D01*
X14385303Y-10845501D02*
X14375779Y-10855025D01*
X14375779Y-10855025D02*
X14356732Y-10864549D01*
X14356732Y-10864549D02*
X14318637Y-10864549D01*
X14318637Y-10864549D02*
X14299589Y-10855025D01*
X14480541Y-10845501D02*
X14490065Y-10855025D01*
X14490065Y-10855025D02*
X14480541Y-10864549D01*
X14480541Y-10864549D02*
X14471018Y-10855025D01*
X14471018Y-10855025D02*
X14480541Y-10845501D01*
X14480541Y-10845501D02*
X14480541Y-10864549D01*
X14480541Y-10740739D02*
X14490065Y-10750263D01*
X14490065Y-10750263D02*
X14480541Y-10759787D01*
X14480541Y-10759787D02*
X14471018Y-10750263D01*
X14471018Y-10750263D02*
X14480541Y-10740739D01*
X14480541Y-10740739D02*
X14480541Y-10759787D01*
M02*
