%TF.GenerationSoftware,KiCad,Pcbnew,7.0.7*%
%TF.CreationDate,2024-03-08T17:36:48-05:00*%
%TF.ProjectId,MemcardBreakout,4d656d63-6172-4644-9272-65616b6f7574,rev?*%
%TF.SameCoordinates,Original*%
%TF.FileFunction,Drillmap*%
%TF.FilePolarity,Positive*%
%FSLAX45Y45*%
G04 Gerber Fmt 4.5, Leading zero omitted, Abs format (unit mm)*
G04 Created by KiCad (PCBNEW 7.0.7) date 2024-03-08 17:36:48*
%MOMM*%
%LPD*%
G01*
G04 APERTURE LIST*
%ADD10C,0.127000*%
%ADD11C,0.200000*%
%ADD12C,0.040000*%
%ADD13C,0.100000*%
G04 APERTURE END LIST*
D10*
X12854686Y-9042781D02*
X13434822Y-9042781D01*
X15274798Y-10546715D02*
X15274798Y-9042781D01*
X13434822Y-9042781D02*
X13434822Y-10546715D01*
X15854680Y-5592699D02*
X12854686Y-5592699D01*
X13434822Y-10546715D02*
X15274798Y-10546715D01*
X12854686Y-5592699D02*
X12854686Y-9042781D01*
X15274798Y-9042781D02*
X15854680Y-9042781D01*
X15854680Y-9042781D02*
X15854680Y-5592699D01*
D11*
D12*
X12916220Y-6611940D02*
X12956220Y-6651940D01*
X12956220Y-6611940D02*
X12916220Y-6651940D01*
X12918760Y-6020120D02*
X12958760Y-6060120D01*
X12958760Y-6020120D02*
X12918760Y-6060120D01*
X12921300Y-8054660D02*
X12961300Y-8094660D01*
X12961300Y-8054660D02*
X12921300Y-8094660D01*
X12928920Y-7353620D02*
X12968920Y-7393620D01*
X12968920Y-7353620D02*
X12928920Y-7393620D01*
X12936540Y-8925880D02*
X12976540Y-8965880D01*
X12976540Y-8925880D02*
X12936540Y-8965880D01*
X13523280Y-9507540D02*
X13563280Y-9547540D01*
X13563280Y-9507540D02*
X13523280Y-9547540D01*
X13817920Y-9187500D02*
X13857920Y-9227500D01*
X13857920Y-9187500D02*
X13817920Y-9227500D01*
X14983780Y-9167180D02*
X15023780Y-9207180D01*
X15023780Y-9167180D02*
X14983780Y-9207180D01*
X15120940Y-9507540D02*
X15160940Y-9547540D01*
X15160940Y-9507540D02*
X15120940Y-9547540D01*
X15717840Y-6556060D02*
X15757840Y-6596060D01*
X15757840Y-6556060D02*
X15717840Y-6596060D01*
X15722920Y-7305360D02*
X15762920Y-7345360D01*
X15762920Y-7305360D02*
X15722920Y-7345360D01*
X15733080Y-6045520D02*
X15773080Y-6085520D01*
X15773080Y-6045520D02*
X15733080Y-6085520D01*
X15735620Y-8918260D02*
X15775620Y-8958260D01*
X15775620Y-8918260D02*
X15735620Y-8958260D01*
X15740700Y-8026720D02*
X15780700Y-8066720D01*
X15780700Y-8026720D02*
X15740700Y-8066720D01*
D13*
X13255460Y-5801360D02*
G75*
G03*
X13255460Y-5801360I-50000J0D01*
G01*
X13509460Y-5801360D02*
G75*
G03*
X13509460Y-5801360I-50000J0D01*
G01*
X13763460Y-5801360D02*
G75*
G03*
X13763460Y-5801360I-50000J0D01*
G01*
X14017460Y-5801360D02*
G75*
G03*
X14017460Y-5801360I-50000J0D01*
G01*
X14271460Y-5801360D02*
G75*
G03*
X14271460Y-5801360I-50000J0D01*
G01*
X14525460Y-5801360D02*
G75*
G03*
X14525460Y-5801360I-50000J0D01*
G01*
X14779460Y-5801360D02*
G75*
G03*
X14779460Y-5801360I-50000J0D01*
G01*
X15033460Y-5801360D02*
G75*
G03*
X15033460Y-5801360I-50000J0D01*
G01*
X15287460Y-5801360D02*
G75*
G03*
X15287460Y-5801360I-50000J0D01*
G01*
X15541460Y-5801360D02*
G75*
G03*
X15541460Y-5801360I-50000J0D01*
G01*
D11*
X13109113Y-10864549D02*
X13109113Y-10664549D01*
X13109113Y-10664549D02*
X13156732Y-10664549D01*
X13156732Y-10664549D02*
X13185303Y-10674073D01*
X13185303Y-10674073D02*
X13204351Y-10693120D01*
X13204351Y-10693120D02*
X13213875Y-10712168D01*
X13213875Y-10712168D02*
X13223398Y-10750263D01*
X13223398Y-10750263D02*
X13223398Y-10778835D01*
X13223398Y-10778835D02*
X13213875Y-10816930D01*
X13213875Y-10816930D02*
X13204351Y-10835977D01*
X13204351Y-10835977D02*
X13185303Y-10855025D01*
X13185303Y-10855025D02*
X13156732Y-10864549D01*
X13156732Y-10864549D02*
X13109113Y-10864549D01*
X13309113Y-10864549D02*
X13309113Y-10731215D01*
X13309113Y-10769311D02*
X13318637Y-10750263D01*
X13318637Y-10750263D02*
X13328160Y-10740739D01*
X13328160Y-10740739D02*
X13347208Y-10731215D01*
X13347208Y-10731215D02*
X13366256Y-10731215D01*
X13432922Y-10864549D02*
X13432922Y-10731215D01*
X13432922Y-10664549D02*
X13423398Y-10674073D01*
X13423398Y-10674073D02*
X13432922Y-10683596D01*
X13432922Y-10683596D02*
X13442446Y-10674073D01*
X13442446Y-10674073D02*
X13432922Y-10664549D01*
X13432922Y-10664549D02*
X13432922Y-10683596D01*
X13556732Y-10864549D02*
X13537684Y-10855025D01*
X13537684Y-10855025D02*
X13528160Y-10835977D01*
X13528160Y-10835977D02*
X13528160Y-10664549D01*
X13661494Y-10864549D02*
X13642446Y-10855025D01*
X13642446Y-10855025D02*
X13632922Y-10835977D01*
X13632922Y-10835977D02*
X13632922Y-10664549D01*
X13890065Y-10864549D02*
X13890065Y-10664549D01*
X13890065Y-10664549D02*
X13956732Y-10807406D01*
X13956732Y-10807406D02*
X14023398Y-10664549D01*
X14023398Y-10664549D02*
X14023398Y-10864549D01*
X14204351Y-10864549D02*
X14204351Y-10759787D01*
X14204351Y-10759787D02*
X14194827Y-10740739D01*
X14194827Y-10740739D02*
X14175779Y-10731215D01*
X14175779Y-10731215D02*
X14137684Y-10731215D01*
X14137684Y-10731215D02*
X14118637Y-10740739D01*
X14204351Y-10855025D02*
X14185303Y-10864549D01*
X14185303Y-10864549D02*
X14137684Y-10864549D01*
X14137684Y-10864549D02*
X14118637Y-10855025D01*
X14118637Y-10855025D02*
X14109113Y-10835977D01*
X14109113Y-10835977D02*
X14109113Y-10816930D01*
X14109113Y-10816930D02*
X14118637Y-10797882D01*
X14118637Y-10797882D02*
X14137684Y-10788358D01*
X14137684Y-10788358D02*
X14185303Y-10788358D01*
X14185303Y-10788358D02*
X14204351Y-10778835D01*
X14299589Y-10731215D02*
X14299589Y-10931215D01*
X14299589Y-10740739D02*
X14318637Y-10731215D01*
X14318637Y-10731215D02*
X14356732Y-10731215D01*
X14356732Y-10731215D02*
X14375779Y-10740739D01*
X14375779Y-10740739D02*
X14385303Y-10750263D01*
X14385303Y-10750263D02*
X14394827Y-10769311D01*
X14394827Y-10769311D02*
X14394827Y-10826454D01*
X14394827Y-10826454D02*
X14385303Y-10845501D01*
X14385303Y-10845501D02*
X14375779Y-10855025D01*
X14375779Y-10855025D02*
X14356732Y-10864549D01*
X14356732Y-10864549D02*
X14318637Y-10864549D01*
X14318637Y-10864549D02*
X14299589Y-10855025D01*
X14480541Y-10845501D02*
X14490065Y-10855025D01*
X14490065Y-10855025D02*
X14480541Y-10864549D01*
X14480541Y-10864549D02*
X14471018Y-10855025D01*
X14471018Y-10855025D02*
X14480541Y-10845501D01*
X14480541Y-10845501D02*
X14480541Y-10864549D01*
X14480541Y-10740739D02*
X14490065Y-10750263D01*
X14490065Y-10750263D02*
X14480541Y-10759787D01*
X14480541Y-10759787D02*
X14471018Y-10750263D01*
X14471018Y-10750263D02*
X14480541Y-10740739D01*
X14480541Y-10740739D02*
X14480541Y-10759787D01*
D12*
X12808336Y-11173065D02*
X12848336Y-11213065D01*
X12848336Y-11173065D02*
X12808336Y-11213065D01*
D11*
X13147208Y-11084549D02*
X13166256Y-11084549D01*
X13166256Y-11084549D02*
X13185303Y-11094073D01*
X13185303Y-11094073D02*
X13194827Y-11103596D01*
X13194827Y-11103596D02*
X13204351Y-11122644D01*
X13204351Y-11122644D02*
X13213875Y-11160739D01*
X13213875Y-11160739D02*
X13213875Y-11208358D01*
X13213875Y-11208358D02*
X13204351Y-11246453D01*
X13204351Y-11246453D02*
X13194827Y-11265501D01*
X13194827Y-11265501D02*
X13185303Y-11275025D01*
X13185303Y-11275025D02*
X13166256Y-11284549D01*
X13166256Y-11284549D02*
X13147208Y-11284549D01*
X13147208Y-11284549D02*
X13128160Y-11275025D01*
X13128160Y-11275025D02*
X13118637Y-11265501D01*
X13118637Y-11265501D02*
X13109113Y-11246453D01*
X13109113Y-11246453D02*
X13099589Y-11208358D01*
X13099589Y-11208358D02*
X13099589Y-11160739D01*
X13099589Y-11160739D02*
X13109113Y-11122644D01*
X13109113Y-11122644D02*
X13118637Y-11103596D01*
X13118637Y-11103596D02*
X13128160Y-11094073D01*
X13128160Y-11094073D02*
X13147208Y-11084549D01*
X13299589Y-11265501D02*
X13309113Y-11275025D01*
X13309113Y-11275025D02*
X13299589Y-11284549D01*
X13299589Y-11284549D02*
X13290065Y-11275025D01*
X13290065Y-11275025D02*
X13299589Y-11265501D01*
X13299589Y-11265501D02*
X13299589Y-11284549D01*
X13480541Y-11151215D02*
X13480541Y-11284549D01*
X13432922Y-11075025D02*
X13385303Y-11217882D01*
X13385303Y-11217882D02*
X13509113Y-11217882D01*
X13623398Y-11084549D02*
X13642446Y-11084549D01*
X13642446Y-11084549D02*
X13661494Y-11094073D01*
X13661494Y-11094073D02*
X13671018Y-11103596D01*
X13671018Y-11103596D02*
X13680541Y-11122644D01*
X13680541Y-11122644D02*
X13690065Y-11160739D01*
X13690065Y-11160739D02*
X13690065Y-11208358D01*
X13690065Y-11208358D02*
X13680541Y-11246453D01*
X13680541Y-11246453D02*
X13671018Y-11265501D01*
X13671018Y-11265501D02*
X13661494Y-11275025D01*
X13661494Y-11275025D02*
X13642446Y-11284549D01*
X13642446Y-11284549D02*
X13623398Y-11284549D01*
X13623398Y-11284549D02*
X13604351Y-11275025D01*
X13604351Y-11275025D02*
X13594827Y-11265501D01*
X13594827Y-11265501D02*
X13585303Y-11246453D01*
X13585303Y-11246453D02*
X13575779Y-11208358D01*
X13575779Y-11208358D02*
X13575779Y-11160739D01*
X13575779Y-11160739D02*
X13585303Y-11122644D01*
X13585303Y-11122644D02*
X13594827Y-11103596D01*
X13594827Y-11103596D02*
X13604351Y-11094073D01*
X13604351Y-11094073D02*
X13623398Y-11084549D01*
X13813875Y-11084549D02*
X13832922Y-11084549D01*
X13832922Y-11084549D02*
X13851970Y-11094073D01*
X13851970Y-11094073D02*
X13861494Y-11103596D01*
X13861494Y-11103596D02*
X13871018Y-11122644D01*
X13871018Y-11122644D02*
X13880541Y-11160739D01*
X13880541Y-11160739D02*
X13880541Y-11208358D01*
X13880541Y-11208358D02*
X13871018Y-11246453D01*
X13871018Y-11246453D02*
X13861494Y-11265501D01*
X13861494Y-11265501D02*
X13851970Y-11275025D01*
X13851970Y-11275025D02*
X13832922Y-11284549D01*
X13832922Y-11284549D02*
X13813875Y-11284549D01*
X13813875Y-11284549D02*
X13794827Y-11275025D01*
X13794827Y-11275025D02*
X13785303Y-11265501D01*
X13785303Y-11265501D02*
X13775779Y-11246453D01*
X13775779Y-11246453D02*
X13766256Y-11208358D01*
X13766256Y-11208358D02*
X13766256Y-11160739D01*
X13766256Y-11160739D02*
X13775779Y-11122644D01*
X13775779Y-11122644D02*
X13785303Y-11103596D01*
X13785303Y-11103596D02*
X13794827Y-11094073D01*
X13794827Y-11094073D02*
X13813875Y-11084549D01*
X13966256Y-11284549D02*
X13966256Y-11151215D01*
X13966256Y-11170263D02*
X13975779Y-11160739D01*
X13975779Y-11160739D02*
X13994827Y-11151215D01*
X13994827Y-11151215D02*
X14023399Y-11151215D01*
X14023399Y-11151215D02*
X14042446Y-11160739D01*
X14042446Y-11160739D02*
X14051970Y-11179787D01*
X14051970Y-11179787D02*
X14051970Y-11284549D01*
X14051970Y-11179787D02*
X14061494Y-11160739D01*
X14061494Y-11160739D02*
X14080541Y-11151215D01*
X14080541Y-11151215D02*
X14109113Y-11151215D01*
X14109113Y-11151215D02*
X14128160Y-11160739D01*
X14128160Y-11160739D02*
X14137684Y-11179787D01*
X14137684Y-11179787D02*
X14137684Y-11284549D01*
X14232922Y-11284549D02*
X14232922Y-11151215D01*
X14232922Y-11170263D02*
X14242446Y-11160739D01*
X14242446Y-11160739D02*
X14261494Y-11151215D01*
X14261494Y-11151215D02*
X14290065Y-11151215D01*
X14290065Y-11151215D02*
X14309113Y-11160739D01*
X14309113Y-11160739D02*
X14318637Y-11179787D01*
X14318637Y-11179787D02*
X14318637Y-11284549D01*
X14318637Y-11179787D02*
X14328160Y-11160739D01*
X14328160Y-11160739D02*
X14347208Y-11151215D01*
X14347208Y-11151215D02*
X14375779Y-11151215D01*
X14375779Y-11151215D02*
X14394827Y-11160739D01*
X14394827Y-11160739D02*
X14404351Y-11179787D01*
X14404351Y-11179787D02*
X14404351Y-11284549D01*
X14794827Y-11075025D02*
X14623399Y-11332168D01*
X15051970Y-11084549D02*
X15071018Y-11084549D01*
X15071018Y-11084549D02*
X15090065Y-11094073D01*
X15090065Y-11094073D02*
X15099589Y-11103596D01*
X15099589Y-11103596D02*
X15109113Y-11122644D01*
X15109113Y-11122644D02*
X15118637Y-11160739D01*
X15118637Y-11160739D02*
X15118637Y-11208358D01*
X15118637Y-11208358D02*
X15109113Y-11246453D01*
X15109113Y-11246453D02*
X15099589Y-11265501D01*
X15099589Y-11265501D02*
X15090065Y-11275025D01*
X15090065Y-11275025D02*
X15071018Y-11284549D01*
X15071018Y-11284549D02*
X15051970Y-11284549D01*
X15051970Y-11284549D02*
X15032922Y-11275025D01*
X15032922Y-11275025D02*
X15023399Y-11265501D01*
X15023399Y-11265501D02*
X15013875Y-11246453D01*
X15013875Y-11246453D02*
X15004351Y-11208358D01*
X15004351Y-11208358D02*
X15004351Y-11160739D01*
X15004351Y-11160739D02*
X15013875Y-11122644D01*
X15013875Y-11122644D02*
X15023399Y-11103596D01*
X15023399Y-11103596D02*
X15032922Y-11094073D01*
X15032922Y-11094073D02*
X15051970Y-11084549D01*
X15204351Y-11265501D02*
X15213875Y-11275025D01*
X15213875Y-11275025D02*
X15204351Y-11284549D01*
X15204351Y-11284549D02*
X15194827Y-11275025D01*
X15194827Y-11275025D02*
X15204351Y-11265501D01*
X15204351Y-11265501D02*
X15204351Y-11284549D01*
X15337684Y-11084549D02*
X15356732Y-11084549D01*
X15356732Y-11084549D02*
X15375780Y-11094073D01*
X15375780Y-11094073D02*
X15385303Y-11103596D01*
X15385303Y-11103596D02*
X15394827Y-11122644D01*
X15394827Y-11122644D02*
X15404351Y-11160739D01*
X15404351Y-11160739D02*
X15404351Y-11208358D01*
X15404351Y-11208358D02*
X15394827Y-11246453D01*
X15394827Y-11246453D02*
X15385303Y-11265501D01*
X15385303Y-11265501D02*
X15375780Y-11275025D01*
X15375780Y-11275025D02*
X15356732Y-11284549D01*
X15356732Y-11284549D02*
X15337684Y-11284549D01*
X15337684Y-11284549D02*
X15318637Y-11275025D01*
X15318637Y-11275025D02*
X15309113Y-11265501D01*
X15309113Y-11265501D02*
X15299589Y-11246453D01*
X15299589Y-11246453D02*
X15290065Y-11208358D01*
X15290065Y-11208358D02*
X15290065Y-11160739D01*
X15290065Y-11160739D02*
X15299589Y-11122644D01*
X15299589Y-11122644D02*
X15309113Y-11103596D01*
X15309113Y-11103596D02*
X15318637Y-11094073D01*
X15318637Y-11094073D02*
X15337684Y-11084549D01*
X15594827Y-11284549D02*
X15480542Y-11284549D01*
X15537684Y-11284549D02*
X15537684Y-11084549D01*
X15537684Y-11084549D02*
X15518637Y-11113120D01*
X15518637Y-11113120D02*
X15499589Y-11132168D01*
X15499589Y-11132168D02*
X15480542Y-11141692D01*
X15775780Y-11084549D02*
X15680542Y-11084549D01*
X15680542Y-11084549D02*
X15671018Y-11179787D01*
X15671018Y-11179787D02*
X15680542Y-11170263D01*
X15680542Y-11170263D02*
X15699589Y-11160739D01*
X15699589Y-11160739D02*
X15747208Y-11160739D01*
X15747208Y-11160739D02*
X15766256Y-11170263D01*
X15766256Y-11170263D02*
X15775780Y-11179787D01*
X15775780Y-11179787D02*
X15785303Y-11198834D01*
X15785303Y-11198834D02*
X15785303Y-11246453D01*
X15785303Y-11246453D02*
X15775780Y-11265501D01*
X15775780Y-11265501D02*
X15766256Y-11275025D01*
X15766256Y-11275025D02*
X15747208Y-11284549D01*
X15747208Y-11284549D02*
X15699589Y-11284549D01*
X15699589Y-11284549D02*
X15680542Y-11275025D01*
X15680542Y-11275025D02*
X15671018Y-11265501D01*
X15851970Y-11084549D02*
X15985303Y-11084549D01*
X15985303Y-11084549D02*
X15899589Y-11284549D01*
X16051970Y-11084549D02*
X16051970Y-11122644D01*
X16128161Y-11084549D02*
X16128161Y-11122644D01*
X16423399Y-11360739D02*
X16413875Y-11351215D01*
X16413875Y-11351215D02*
X16394827Y-11322644D01*
X16394827Y-11322644D02*
X16385304Y-11303596D01*
X16385304Y-11303596D02*
X16375780Y-11275025D01*
X16375780Y-11275025D02*
X16366256Y-11227406D01*
X16366256Y-11227406D02*
X16366256Y-11189311D01*
X16366256Y-11189311D02*
X16375780Y-11141692D01*
X16375780Y-11141692D02*
X16385304Y-11113120D01*
X16385304Y-11113120D02*
X16394827Y-11094073D01*
X16394827Y-11094073D02*
X16413875Y-11065501D01*
X16413875Y-11065501D02*
X16423399Y-11055977D01*
X16604351Y-11284549D02*
X16490065Y-11284549D01*
X16547208Y-11284549D02*
X16547208Y-11084549D01*
X16547208Y-11084549D02*
X16528161Y-11113120D01*
X16528161Y-11113120D02*
X16509113Y-11132168D01*
X16509113Y-11132168D02*
X16490065Y-11141692D01*
X16775780Y-11151215D02*
X16775780Y-11284549D01*
X16728161Y-11075025D02*
X16680542Y-11217882D01*
X16680542Y-11217882D02*
X16804351Y-11217882D01*
X17032923Y-11284549D02*
X17032923Y-11084549D01*
X17118637Y-11284549D02*
X17118637Y-11179787D01*
X17118637Y-11179787D02*
X17109113Y-11160739D01*
X17109113Y-11160739D02*
X17090066Y-11151215D01*
X17090066Y-11151215D02*
X17061494Y-11151215D01*
X17061494Y-11151215D02*
X17042447Y-11160739D01*
X17042447Y-11160739D02*
X17032923Y-11170263D01*
X17242447Y-11284549D02*
X17223399Y-11275025D01*
X17223399Y-11275025D02*
X17213875Y-11265501D01*
X17213875Y-11265501D02*
X17204351Y-11246453D01*
X17204351Y-11246453D02*
X17204351Y-11189311D01*
X17204351Y-11189311D02*
X17213875Y-11170263D01*
X17213875Y-11170263D02*
X17223399Y-11160739D01*
X17223399Y-11160739D02*
X17242447Y-11151215D01*
X17242447Y-11151215D02*
X17271018Y-11151215D01*
X17271018Y-11151215D02*
X17290066Y-11160739D01*
X17290066Y-11160739D02*
X17299589Y-11170263D01*
X17299589Y-11170263D02*
X17309113Y-11189311D01*
X17309113Y-11189311D02*
X17309113Y-11246453D01*
X17309113Y-11246453D02*
X17299589Y-11265501D01*
X17299589Y-11265501D02*
X17290066Y-11275025D01*
X17290066Y-11275025D02*
X17271018Y-11284549D01*
X17271018Y-11284549D02*
X17242447Y-11284549D01*
X17423399Y-11284549D02*
X17404351Y-11275025D01*
X17404351Y-11275025D02*
X17394828Y-11255977D01*
X17394828Y-11255977D02*
X17394828Y-11084549D01*
X17575780Y-11275025D02*
X17556732Y-11284549D01*
X17556732Y-11284549D02*
X17518637Y-11284549D01*
X17518637Y-11284549D02*
X17499589Y-11275025D01*
X17499589Y-11275025D02*
X17490066Y-11255977D01*
X17490066Y-11255977D02*
X17490066Y-11179787D01*
X17490066Y-11179787D02*
X17499589Y-11160739D01*
X17499589Y-11160739D02*
X17518637Y-11151215D01*
X17518637Y-11151215D02*
X17556732Y-11151215D01*
X17556732Y-11151215D02*
X17575780Y-11160739D01*
X17575780Y-11160739D02*
X17585304Y-11179787D01*
X17585304Y-11179787D02*
X17585304Y-11198834D01*
X17585304Y-11198834D02*
X17490066Y-11217882D01*
X17661494Y-11275025D02*
X17680542Y-11284549D01*
X17680542Y-11284549D02*
X17718637Y-11284549D01*
X17718637Y-11284549D02*
X17737685Y-11275025D01*
X17737685Y-11275025D02*
X17747209Y-11255977D01*
X17747209Y-11255977D02*
X17747209Y-11246453D01*
X17747209Y-11246453D02*
X17737685Y-11227406D01*
X17737685Y-11227406D02*
X17718637Y-11217882D01*
X17718637Y-11217882D02*
X17690066Y-11217882D01*
X17690066Y-11217882D02*
X17671018Y-11208358D01*
X17671018Y-11208358D02*
X17661494Y-11189311D01*
X17661494Y-11189311D02*
X17661494Y-11179787D01*
X17661494Y-11179787D02*
X17671018Y-11160739D01*
X17671018Y-11160739D02*
X17690066Y-11151215D01*
X17690066Y-11151215D02*
X17718637Y-11151215D01*
X17718637Y-11151215D02*
X17737685Y-11160739D01*
X17813875Y-11360739D02*
X17823399Y-11351215D01*
X17823399Y-11351215D02*
X17842447Y-11322644D01*
X17842447Y-11322644D02*
X17851970Y-11303596D01*
X17851970Y-11303596D02*
X17861494Y-11275025D01*
X17861494Y-11275025D02*
X17871018Y-11227406D01*
X17871018Y-11227406D02*
X17871018Y-11189311D01*
X17871018Y-11189311D02*
X17861494Y-11141692D01*
X17861494Y-11141692D02*
X17851970Y-11113120D01*
X17851970Y-11113120D02*
X17842447Y-11094073D01*
X17842447Y-11094073D02*
X17823399Y-11065501D01*
X17823399Y-11065501D02*
X17813875Y-11055977D01*
D13*
X12848336Y-11457065D02*
G75*
G03*
X12848336Y-11457065I-50000J0D01*
G01*
D11*
X13213875Y-11548549D02*
X13099589Y-11548549D01*
X13156732Y-11548549D02*
X13156732Y-11348549D01*
X13156732Y-11348549D02*
X13137684Y-11377120D01*
X13137684Y-11377120D02*
X13118637Y-11396168D01*
X13118637Y-11396168D02*
X13099589Y-11405692D01*
X13299589Y-11529501D02*
X13309113Y-11539025D01*
X13309113Y-11539025D02*
X13299589Y-11548549D01*
X13299589Y-11548549D02*
X13290065Y-11539025D01*
X13290065Y-11539025D02*
X13299589Y-11529501D01*
X13299589Y-11529501D02*
X13299589Y-11548549D01*
X13432922Y-11348549D02*
X13451970Y-11348549D01*
X13451970Y-11348549D02*
X13471018Y-11358073D01*
X13471018Y-11358073D02*
X13480541Y-11367596D01*
X13480541Y-11367596D02*
X13490065Y-11386644D01*
X13490065Y-11386644D02*
X13499589Y-11424739D01*
X13499589Y-11424739D02*
X13499589Y-11472358D01*
X13499589Y-11472358D02*
X13490065Y-11510453D01*
X13490065Y-11510453D02*
X13480541Y-11529501D01*
X13480541Y-11529501D02*
X13471018Y-11539025D01*
X13471018Y-11539025D02*
X13451970Y-11548549D01*
X13451970Y-11548549D02*
X13432922Y-11548549D01*
X13432922Y-11548549D02*
X13413875Y-11539025D01*
X13413875Y-11539025D02*
X13404351Y-11529501D01*
X13404351Y-11529501D02*
X13394827Y-11510453D01*
X13394827Y-11510453D02*
X13385303Y-11472358D01*
X13385303Y-11472358D02*
X13385303Y-11424739D01*
X13385303Y-11424739D02*
X13394827Y-11386644D01*
X13394827Y-11386644D02*
X13404351Y-11367596D01*
X13404351Y-11367596D02*
X13413875Y-11358073D01*
X13413875Y-11358073D02*
X13432922Y-11348549D01*
X13623398Y-11348549D02*
X13642446Y-11348549D01*
X13642446Y-11348549D02*
X13661494Y-11358073D01*
X13661494Y-11358073D02*
X13671018Y-11367596D01*
X13671018Y-11367596D02*
X13680541Y-11386644D01*
X13680541Y-11386644D02*
X13690065Y-11424739D01*
X13690065Y-11424739D02*
X13690065Y-11472358D01*
X13690065Y-11472358D02*
X13680541Y-11510453D01*
X13680541Y-11510453D02*
X13671018Y-11529501D01*
X13671018Y-11529501D02*
X13661494Y-11539025D01*
X13661494Y-11539025D02*
X13642446Y-11548549D01*
X13642446Y-11548549D02*
X13623398Y-11548549D01*
X13623398Y-11548549D02*
X13604351Y-11539025D01*
X13604351Y-11539025D02*
X13594827Y-11529501D01*
X13594827Y-11529501D02*
X13585303Y-11510453D01*
X13585303Y-11510453D02*
X13575779Y-11472358D01*
X13575779Y-11472358D02*
X13575779Y-11424739D01*
X13575779Y-11424739D02*
X13585303Y-11386644D01*
X13585303Y-11386644D02*
X13594827Y-11367596D01*
X13594827Y-11367596D02*
X13604351Y-11358073D01*
X13604351Y-11358073D02*
X13623398Y-11348549D01*
X13813875Y-11348549D02*
X13832922Y-11348549D01*
X13832922Y-11348549D02*
X13851970Y-11358073D01*
X13851970Y-11358073D02*
X13861494Y-11367596D01*
X13861494Y-11367596D02*
X13871018Y-11386644D01*
X13871018Y-11386644D02*
X13880541Y-11424739D01*
X13880541Y-11424739D02*
X13880541Y-11472358D01*
X13880541Y-11472358D02*
X13871018Y-11510453D01*
X13871018Y-11510453D02*
X13861494Y-11529501D01*
X13861494Y-11529501D02*
X13851970Y-11539025D01*
X13851970Y-11539025D02*
X13832922Y-11548549D01*
X13832922Y-11548549D02*
X13813875Y-11548549D01*
X13813875Y-11548549D02*
X13794827Y-11539025D01*
X13794827Y-11539025D02*
X13785303Y-11529501D01*
X13785303Y-11529501D02*
X13775779Y-11510453D01*
X13775779Y-11510453D02*
X13766256Y-11472358D01*
X13766256Y-11472358D02*
X13766256Y-11424739D01*
X13766256Y-11424739D02*
X13775779Y-11386644D01*
X13775779Y-11386644D02*
X13785303Y-11367596D01*
X13785303Y-11367596D02*
X13794827Y-11358073D01*
X13794827Y-11358073D02*
X13813875Y-11348549D01*
X13966256Y-11548549D02*
X13966256Y-11415215D01*
X13966256Y-11434263D02*
X13975779Y-11424739D01*
X13975779Y-11424739D02*
X13994827Y-11415215D01*
X13994827Y-11415215D02*
X14023399Y-11415215D01*
X14023399Y-11415215D02*
X14042446Y-11424739D01*
X14042446Y-11424739D02*
X14051970Y-11443787D01*
X14051970Y-11443787D02*
X14051970Y-11548549D01*
X14051970Y-11443787D02*
X14061494Y-11424739D01*
X14061494Y-11424739D02*
X14080541Y-11415215D01*
X14080541Y-11415215D02*
X14109113Y-11415215D01*
X14109113Y-11415215D02*
X14128160Y-11424739D01*
X14128160Y-11424739D02*
X14137684Y-11443787D01*
X14137684Y-11443787D02*
X14137684Y-11548549D01*
X14232922Y-11548549D02*
X14232922Y-11415215D01*
X14232922Y-11434263D02*
X14242446Y-11424739D01*
X14242446Y-11424739D02*
X14261494Y-11415215D01*
X14261494Y-11415215D02*
X14290065Y-11415215D01*
X14290065Y-11415215D02*
X14309113Y-11424739D01*
X14309113Y-11424739D02*
X14318637Y-11443787D01*
X14318637Y-11443787D02*
X14318637Y-11548549D01*
X14318637Y-11443787D02*
X14328160Y-11424739D01*
X14328160Y-11424739D02*
X14347208Y-11415215D01*
X14347208Y-11415215D02*
X14375779Y-11415215D01*
X14375779Y-11415215D02*
X14394827Y-11424739D01*
X14394827Y-11424739D02*
X14404351Y-11443787D01*
X14404351Y-11443787D02*
X14404351Y-11548549D01*
X14794827Y-11339025D02*
X14623399Y-11596168D01*
X15051970Y-11348549D02*
X15071018Y-11348549D01*
X15071018Y-11348549D02*
X15090065Y-11358073D01*
X15090065Y-11358073D02*
X15099589Y-11367596D01*
X15099589Y-11367596D02*
X15109113Y-11386644D01*
X15109113Y-11386644D02*
X15118637Y-11424739D01*
X15118637Y-11424739D02*
X15118637Y-11472358D01*
X15118637Y-11472358D02*
X15109113Y-11510453D01*
X15109113Y-11510453D02*
X15099589Y-11529501D01*
X15099589Y-11529501D02*
X15090065Y-11539025D01*
X15090065Y-11539025D02*
X15071018Y-11548549D01*
X15071018Y-11548549D02*
X15051970Y-11548549D01*
X15051970Y-11548549D02*
X15032922Y-11539025D01*
X15032922Y-11539025D02*
X15023399Y-11529501D01*
X15023399Y-11529501D02*
X15013875Y-11510453D01*
X15013875Y-11510453D02*
X15004351Y-11472358D01*
X15004351Y-11472358D02*
X15004351Y-11424739D01*
X15004351Y-11424739D02*
X15013875Y-11386644D01*
X15013875Y-11386644D02*
X15023399Y-11367596D01*
X15023399Y-11367596D02*
X15032922Y-11358073D01*
X15032922Y-11358073D02*
X15051970Y-11348549D01*
X15204351Y-11529501D02*
X15213875Y-11539025D01*
X15213875Y-11539025D02*
X15204351Y-11548549D01*
X15204351Y-11548549D02*
X15194827Y-11539025D01*
X15194827Y-11539025D02*
X15204351Y-11529501D01*
X15204351Y-11529501D02*
X15204351Y-11548549D01*
X15337684Y-11348549D02*
X15356732Y-11348549D01*
X15356732Y-11348549D02*
X15375780Y-11358073D01*
X15375780Y-11358073D02*
X15385303Y-11367596D01*
X15385303Y-11367596D02*
X15394827Y-11386644D01*
X15394827Y-11386644D02*
X15404351Y-11424739D01*
X15404351Y-11424739D02*
X15404351Y-11472358D01*
X15404351Y-11472358D02*
X15394827Y-11510453D01*
X15394827Y-11510453D02*
X15385303Y-11529501D01*
X15385303Y-11529501D02*
X15375780Y-11539025D01*
X15375780Y-11539025D02*
X15356732Y-11548549D01*
X15356732Y-11548549D02*
X15337684Y-11548549D01*
X15337684Y-11548549D02*
X15318637Y-11539025D01*
X15318637Y-11539025D02*
X15309113Y-11529501D01*
X15309113Y-11529501D02*
X15299589Y-11510453D01*
X15299589Y-11510453D02*
X15290065Y-11472358D01*
X15290065Y-11472358D02*
X15290065Y-11424739D01*
X15290065Y-11424739D02*
X15299589Y-11386644D01*
X15299589Y-11386644D02*
X15309113Y-11367596D01*
X15309113Y-11367596D02*
X15318637Y-11358073D01*
X15318637Y-11358073D02*
X15337684Y-11348549D01*
X15471018Y-11348549D02*
X15594827Y-11348549D01*
X15594827Y-11348549D02*
X15528161Y-11424739D01*
X15528161Y-11424739D02*
X15556732Y-11424739D01*
X15556732Y-11424739D02*
X15575780Y-11434263D01*
X15575780Y-11434263D02*
X15585303Y-11443787D01*
X15585303Y-11443787D02*
X15594827Y-11462834D01*
X15594827Y-11462834D02*
X15594827Y-11510453D01*
X15594827Y-11510453D02*
X15585303Y-11529501D01*
X15585303Y-11529501D02*
X15575780Y-11539025D01*
X15575780Y-11539025D02*
X15556732Y-11548549D01*
X15556732Y-11548549D02*
X15499589Y-11548549D01*
X15499589Y-11548549D02*
X15480542Y-11539025D01*
X15480542Y-11539025D02*
X15471018Y-11529501D01*
X15690065Y-11548549D02*
X15728161Y-11548549D01*
X15728161Y-11548549D02*
X15747208Y-11539025D01*
X15747208Y-11539025D02*
X15756732Y-11529501D01*
X15756732Y-11529501D02*
X15775780Y-11500930D01*
X15775780Y-11500930D02*
X15785303Y-11462834D01*
X15785303Y-11462834D02*
X15785303Y-11386644D01*
X15785303Y-11386644D02*
X15775780Y-11367596D01*
X15775780Y-11367596D02*
X15766256Y-11358073D01*
X15766256Y-11358073D02*
X15747208Y-11348549D01*
X15747208Y-11348549D02*
X15709113Y-11348549D01*
X15709113Y-11348549D02*
X15690065Y-11358073D01*
X15690065Y-11358073D02*
X15680542Y-11367596D01*
X15680542Y-11367596D02*
X15671018Y-11386644D01*
X15671018Y-11386644D02*
X15671018Y-11434263D01*
X15671018Y-11434263D02*
X15680542Y-11453311D01*
X15680542Y-11453311D02*
X15690065Y-11462834D01*
X15690065Y-11462834D02*
X15709113Y-11472358D01*
X15709113Y-11472358D02*
X15747208Y-11472358D01*
X15747208Y-11472358D02*
X15766256Y-11462834D01*
X15766256Y-11462834D02*
X15775780Y-11453311D01*
X15775780Y-11453311D02*
X15785303Y-11434263D01*
X15956732Y-11415215D02*
X15956732Y-11548549D01*
X15909113Y-11339025D02*
X15861494Y-11481882D01*
X15861494Y-11481882D02*
X15985303Y-11481882D01*
X16051970Y-11348549D02*
X16051970Y-11386644D01*
X16128161Y-11348549D02*
X16128161Y-11386644D01*
X16423399Y-11624739D02*
X16413875Y-11615215D01*
X16413875Y-11615215D02*
X16394827Y-11586644D01*
X16394827Y-11586644D02*
X16385304Y-11567596D01*
X16385304Y-11567596D02*
X16375780Y-11539025D01*
X16375780Y-11539025D02*
X16366256Y-11491406D01*
X16366256Y-11491406D02*
X16366256Y-11453311D01*
X16366256Y-11453311D02*
X16375780Y-11405692D01*
X16375780Y-11405692D02*
X16385304Y-11377120D01*
X16385304Y-11377120D02*
X16394827Y-11358073D01*
X16394827Y-11358073D02*
X16413875Y-11329501D01*
X16413875Y-11329501D02*
X16423399Y-11319977D01*
X16604351Y-11548549D02*
X16490065Y-11548549D01*
X16547208Y-11548549D02*
X16547208Y-11348549D01*
X16547208Y-11348549D02*
X16528161Y-11377120D01*
X16528161Y-11377120D02*
X16509113Y-11396168D01*
X16509113Y-11396168D02*
X16490065Y-11405692D01*
X16728161Y-11348549D02*
X16747208Y-11348549D01*
X16747208Y-11348549D02*
X16766256Y-11358073D01*
X16766256Y-11358073D02*
X16775780Y-11367596D01*
X16775780Y-11367596D02*
X16785304Y-11386644D01*
X16785304Y-11386644D02*
X16794827Y-11424739D01*
X16794827Y-11424739D02*
X16794827Y-11472358D01*
X16794827Y-11472358D02*
X16785304Y-11510453D01*
X16785304Y-11510453D02*
X16775780Y-11529501D01*
X16775780Y-11529501D02*
X16766256Y-11539025D01*
X16766256Y-11539025D02*
X16747208Y-11548549D01*
X16747208Y-11548549D02*
X16728161Y-11548549D01*
X16728161Y-11548549D02*
X16709113Y-11539025D01*
X16709113Y-11539025D02*
X16699589Y-11529501D01*
X16699589Y-11529501D02*
X16690065Y-11510453D01*
X16690065Y-11510453D02*
X16680542Y-11472358D01*
X16680542Y-11472358D02*
X16680542Y-11424739D01*
X16680542Y-11424739D02*
X16690065Y-11386644D01*
X16690065Y-11386644D02*
X16699589Y-11367596D01*
X16699589Y-11367596D02*
X16709113Y-11358073D01*
X16709113Y-11358073D02*
X16728161Y-11348549D01*
X17032923Y-11548549D02*
X17032923Y-11348549D01*
X17118637Y-11548549D02*
X17118637Y-11443787D01*
X17118637Y-11443787D02*
X17109113Y-11424739D01*
X17109113Y-11424739D02*
X17090066Y-11415215D01*
X17090066Y-11415215D02*
X17061494Y-11415215D01*
X17061494Y-11415215D02*
X17042447Y-11424739D01*
X17042447Y-11424739D02*
X17032923Y-11434263D01*
X17242447Y-11548549D02*
X17223399Y-11539025D01*
X17223399Y-11539025D02*
X17213875Y-11529501D01*
X17213875Y-11529501D02*
X17204351Y-11510453D01*
X17204351Y-11510453D02*
X17204351Y-11453311D01*
X17204351Y-11453311D02*
X17213875Y-11434263D01*
X17213875Y-11434263D02*
X17223399Y-11424739D01*
X17223399Y-11424739D02*
X17242447Y-11415215D01*
X17242447Y-11415215D02*
X17271018Y-11415215D01*
X17271018Y-11415215D02*
X17290066Y-11424739D01*
X17290066Y-11424739D02*
X17299589Y-11434263D01*
X17299589Y-11434263D02*
X17309113Y-11453311D01*
X17309113Y-11453311D02*
X17309113Y-11510453D01*
X17309113Y-11510453D02*
X17299589Y-11529501D01*
X17299589Y-11529501D02*
X17290066Y-11539025D01*
X17290066Y-11539025D02*
X17271018Y-11548549D01*
X17271018Y-11548549D02*
X17242447Y-11548549D01*
X17423399Y-11548549D02*
X17404351Y-11539025D01*
X17404351Y-11539025D02*
X17394828Y-11519977D01*
X17394828Y-11519977D02*
X17394828Y-11348549D01*
X17575780Y-11539025D02*
X17556732Y-11548549D01*
X17556732Y-11548549D02*
X17518637Y-11548549D01*
X17518637Y-11548549D02*
X17499589Y-11539025D01*
X17499589Y-11539025D02*
X17490066Y-11519977D01*
X17490066Y-11519977D02*
X17490066Y-11443787D01*
X17490066Y-11443787D02*
X17499589Y-11424739D01*
X17499589Y-11424739D02*
X17518637Y-11415215D01*
X17518637Y-11415215D02*
X17556732Y-11415215D01*
X17556732Y-11415215D02*
X17575780Y-11424739D01*
X17575780Y-11424739D02*
X17585304Y-11443787D01*
X17585304Y-11443787D02*
X17585304Y-11462834D01*
X17585304Y-11462834D02*
X17490066Y-11481882D01*
X17661494Y-11539025D02*
X17680542Y-11548549D01*
X17680542Y-11548549D02*
X17718637Y-11548549D01*
X17718637Y-11548549D02*
X17737685Y-11539025D01*
X17737685Y-11539025D02*
X17747209Y-11519977D01*
X17747209Y-11519977D02*
X17747209Y-11510453D01*
X17747209Y-11510453D02*
X17737685Y-11491406D01*
X17737685Y-11491406D02*
X17718637Y-11481882D01*
X17718637Y-11481882D02*
X17690066Y-11481882D01*
X17690066Y-11481882D02*
X17671018Y-11472358D01*
X17671018Y-11472358D02*
X17661494Y-11453311D01*
X17661494Y-11453311D02*
X17661494Y-11443787D01*
X17661494Y-11443787D02*
X17671018Y-11424739D01*
X17671018Y-11424739D02*
X17690066Y-11415215D01*
X17690066Y-11415215D02*
X17718637Y-11415215D01*
X17718637Y-11415215D02*
X17737685Y-11424739D01*
X17813875Y-11624739D02*
X17823399Y-11615215D01*
X17823399Y-11615215D02*
X17842447Y-11586644D01*
X17842447Y-11586644D02*
X17851970Y-11567596D01*
X17851970Y-11567596D02*
X17861494Y-11539025D01*
X17861494Y-11539025D02*
X17871018Y-11491406D01*
X17871018Y-11491406D02*
X17871018Y-11453311D01*
X17871018Y-11453311D02*
X17861494Y-11405692D01*
X17861494Y-11405692D02*
X17851970Y-11377120D01*
X17851970Y-11377120D02*
X17842447Y-11358073D01*
X17842447Y-11358073D02*
X17823399Y-11329501D01*
X17823399Y-11329501D02*
X17813875Y-11319977D01*
M02*
