%TF.GenerationSoftware,KiCad,Pcbnew,7.0.7*%
%TF.CreationDate,2024-03-08T17:36:46-05:00*%
%TF.ProjectId,MemcardBreakout,4d656d63-6172-4644-9272-65616b6f7574,rev?*%
%TF.SameCoordinates,Original*%
%TF.FileFunction,Legend,Top*%
%TF.FilePolarity,Positive*%
%FSLAX46Y46*%
G04 Gerber Fmt 4.6, Leading zero omitted, Abs format (unit mm)*
G04 Created by KiCad (PCBNEW 7.0.7) date 2024-03-08 17:36:46*
%MOMM*%
%LPD*%
G01*
G04 APERTURE LIST*
%ADD10C,0.150000*%
%ADD11C,0.200000*%
%ADD12C,0.160000*%
%ADD13C,0.120000*%
G04 APERTURE END LIST*
D10*
X138566760Y-79349600D02*
X138709617Y-79397219D01*
X138709617Y-79397219D02*
X138947712Y-79397219D01*
X138947712Y-79397219D02*
X139042950Y-79349600D01*
X139042950Y-79349600D02*
X139090569Y-79301980D01*
X139090569Y-79301980D02*
X139138188Y-79206742D01*
X139138188Y-79206742D02*
X139138188Y-79111504D01*
X139138188Y-79111504D02*
X139090569Y-79016266D01*
X139090569Y-79016266D02*
X139042950Y-78968647D01*
X139042950Y-78968647D02*
X138947712Y-78921028D01*
X138947712Y-78921028D02*
X138757236Y-78873409D01*
X138757236Y-78873409D02*
X138661998Y-78825790D01*
X138661998Y-78825790D02*
X138614379Y-78778171D01*
X138614379Y-78778171D02*
X138566760Y-78682933D01*
X138566760Y-78682933D02*
X138566760Y-78587695D01*
X138566760Y-78587695D02*
X138614379Y-78492457D01*
X138614379Y-78492457D02*
X138661998Y-78444838D01*
X138661998Y-78444838D02*
X138757236Y-78397219D01*
X138757236Y-78397219D02*
X138995331Y-78397219D01*
X138995331Y-78397219D02*
X139138188Y-78444838D01*
X139566760Y-79397219D02*
X139566760Y-78397219D01*
X140519140Y-79397219D02*
X140042950Y-79397219D01*
X140042950Y-79397219D02*
X140042950Y-78397219D01*
X140709617Y-78397219D02*
X141042950Y-79397219D01*
X141042950Y-79397219D02*
X141376283Y-78397219D01*
X141709617Y-78873409D02*
X142042950Y-78873409D01*
X142185807Y-79397219D02*
X141709617Y-79397219D01*
X141709617Y-79397219D02*
X141709617Y-78397219D01*
X141709617Y-78397219D02*
X142185807Y-78397219D01*
X143185807Y-79397219D02*
X142852474Y-78921028D01*
X142614379Y-79397219D02*
X142614379Y-78397219D01*
X142614379Y-78397219D02*
X142995331Y-78397219D01*
X142995331Y-78397219D02*
X143090569Y-78444838D01*
X143090569Y-78444838D02*
X143138188Y-78492457D01*
X143138188Y-78492457D02*
X143185807Y-78587695D01*
X143185807Y-78587695D02*
X143185807Y-78730552D01*
X143185807Y-78730552D02*
X143138188Y-78825790D01*
X143138188Y-78825790D02*
X143090569Y-78873409D01*
X143090569Y-78873409D02*
X142995331Y-78921028D01*
X142995331Y-78921028D02*
X142614379Y-78921028D01*
X143566760Y-79349600D02*
X143709617Y-79397219D01*
X143709617Y-79397219D02*
X143947712Y-79397219D01*
X143947712Y-79397219D02*
X144042950Y-79349600D01*
X144042950Y-79349600D02*
X144090569Y-79301980D01*
X144090569Y-79301980D02*
X144138188Y-79206742D01*
X144138188Y-79206742D02*
X144138188Y-79111504D01*
X144138188Y-79111504D02*
X144090569Y-79016266D01*
X144090569Y-79016266D02*
X144042950Y-78968647D01*
X144042950Y-78968647D02*
X143947712Y-78921028D01*
X143947712Y-78921028D02*
X143757236Y-78873409D01*
X143757236Y-78873409D02*
X143661998Y-78825790D01*
X143661998Y-78825790D02*
X143614379Y-78778171D01*
X143614379Y-78778171D02*
X143566760Y-78682933D01*
X143566760Y-78682933D02*
X143566760Y-78587695D01*
X143566760Y-78587695D02*
X143614379Y-78492457D01*
X143614379Y-78492457D02*
X143661998Y-78444838D01*
X143661998Y-78444838D02*
X143757236Y-78397219D01*
X143757236Y-78397219D02*
X143995331Y-78397219D01*
X143995331Y-78397219D02*
X144138188Y-78444838D01*
X144423903Y-78397219D02*
X144995331Y-78397219D01*
X144709617Y-79397219D02*
X144709617Y-78397219D01*
X145328665Y-78873409D02*
X145661998Y-78873409D01*
X145804855Y-79397219D02*
X145328665Y-79397219D01*
X145328665Y-79397219D02*
X145328665Y-78397219D01*
X145328665Y-78397219D02*
X145804855Y-78397219D01*
X146233427Y-78873409D02*
X146566760Y-78873409D01*
X146709617Y-79397219D02*
X146233427Y-79397219D01*
X146233427Y-79397219D02*
X146233427Y-78397219D01*
X146233427Y-78397219D02*
X146709617Y-78397219D01*
X147614379Y-79397219D02*
X147138189Y-79397219D01*
X147138189Y-79397219D02*
X147138189Y-78397219D01*
X135363009Y-99739220D02*
X135363009Y-99405887D01*
X135886819Y-99263030D02*
X135886819Y-99739220D01*
X135886819Y-99739220D02*
X134886819Y-99739220D01*
X134886819Y-99739220D02*
X134886819Y-99263030D01*
X134886819Y-98929696D02*
X135886819Y-98263030D01*
X134886819Y-98263030D02*
X135886819Y-98929696D01*
X134886819Y-98024934D02*
X134886819Y-97453506D01*
X135886819Y-97739220D02*
X134886819Y-97739220D01*
X134886819Y-96929696D02*
X134886819Y-96739220D01*
X134886819Y-96739220D02*
X134934438Y-96643982D01*
X134934438Y-96643982D02*
X135029676Y-96548744D01*
X135029676Y-96548744D02*
X135220152Y-96501125D01*
X135220152Y-96501125D02*
X135553485Y-96501125D01*
X135553485Y-96501125D02*
X135743961Y-96548744D01*
X135743961Y-96548744D02*
X135839200Y-96643982D01*
X135839200Y-96643982D02*
X135886819Y-96739220D01*
X135886819Y-96739220D02*
X135886819Y-96929696D01*
X135886819Y-96929696D02*
X135839200Y-97024934D01*
X135839200Y-97024934D02*
X135743961Y-97120172D01*
X135743961Y-97120172D02*
X135553485Y-97167791D01*
X135553485Y-97167791D02*
X135220152Y-97167791D01*
X135220152Y-97167791D02*
X135029676Y-97120172D01*
X135029676Y-97120172D02*
X134934438Y-97024934D01*
X134934438Y-97024934D02*
X134886819Y-96929696D01*
X134886819Y-96072553D02*
X135696342Y-96072553D01*
X135696342Y-96072553D02*
X135791580Y-96024934D01*
X135791580Y-96024934D02*
X135839200Y-95977315D01*
X135839200Y-95977315D02*
X135886819Y-95882077D01*
X135886819Y-95882077D02*
X135886819Y-95691601D01*
X135886819Y-95691601D02*
X135839200Y-95596363D01*
X135839200Y-95596363D02*
X135791580Y-95548744D01*
X135791580Y-95548744D02*
X135696342Y-95501125D01*
X135696342Y-95501125D02*
X134886819Y-95501125D01*
X134886819Y-95167791D02*
X134886819Y-94596363D01*
X135886819Y-94882077D02*
X134886819Y-94882077D01*
X151415809Y-95522820D02*
X151415809Y-95189487D01*
X151939619Y-95046630D02*
X151939619Y-95522820D01*
X151939619Y-95522820D02*
X150939619Y-95522820D01*
X150939619Y-95522820D02*
X150939619Y-95046630D01*
X150939619Y-94713296D02*
X151939619Y-94046630D01*
X150939619Y-94046630D02*
X151939619Y-94713296D01*
X150939619Y-93808534D02*
X150939619Y-93237106D01*
X151939619Y-93522820D02*
X150939619Y-93522820D01*
X151939619Y-92903772D02*
X150939619Y-92903772D01*
X151939619Y-92427582D02*
X150939619Y-92427582D01*
X150939619Y-92427582D02*
X151939619Y-91856154D01*
X151939619Y-91856154D02*
X150939619Y-91856154D01*
X148942419Y-95522820D02*
X147942419Y-95522820D01*
X148942419Y-95046630D02*
X147942419Y-95046630D01*
X147942419Y-95046630D02*
X148942419Y-94475202D01*
X148942419Y-94475202D02*
X147942419Y-94475202D01*
X147942419Y-94141868D02*
X147942419Y-93570440D01*
X148942419Y-93856154D02*
X147942419Y-93856154D01*
X146123019Y-95522820D02*
X145123019Y-95522820D01*
X145123019Y-95522820D02*
X145123019Y-95284725D01*
X145123019Y-95284725D02*
X145170638Y-95141868D01*
X145170638Y-95141868D02*
X145265876Y-95046630D01*
X145265876Y-95046630D02*
X145361114Y-94999011D01*
X145361114Y-94999011D02*
X145551590Y-94951392D01*
X145551590Y-94951392D02*
X145694447Y-94951392D01*
X145694447Y-94951392D02*
X145884923Y-94999011D01*
X145884923Y-94999011D02*
X145980161Y-95046630D01*
X145980161Y-95046630D02*
X146075400Y-95141868D01*
X146075400Y-95141868D02*
X146123019Y-95284725D01*
X146123019Y-95284725D02*
X146123019Y-95522820D01*
X145123019Y-94332344D02*
X145123019Y-94141868D01*
X145123019Y-94141868D02*
X145170638Y-94046630D01*
X145170638Y-94046630D02*
X145265876Y-93951392D01*
X145265876Y-93951392D02*
X145456352Y-93903773D01*
X145456352Y-93903773D02*
X145789685Y-93903773D01*
X145789685Y-93903773D02*
X145980161Y-93951392D01*
X145980161Y-93951392D02*
X146075400Y-94046630D01*
X146075400Y-94046630D02*
X146123019Y-94141868D01*
X146123019Y-94141868D02*
X146123019Y-94332344D01*
X146123019Y-94332344D02*
X146075400Y-94427582D01*
X146075400Y-94427582D02*
X145980161Y-94522820D01*
X145980161Y-94522820D02*
X145789685Y-94570439D01*
X145789685Y-94570439D02*
X145456352Y-94570439D01*
X145456352Y-94570439D02*
X145265876Y-94522820D01*
X145265876Y-94522820D02*
X145170638Y-94427582D01*
X145170638Y-94427582D02*
X145123019Y-94332344D01*
X143202019Y-95522820D02*
X142202019Y-95522820D01*
X142202019Y-95522820D02*
X142202019Y-95284725D01*
X142202019Y-95284725D02*
X142249638Y-95141868D01*
X142249638Y-95141868D02*
X142344876Y-95046630D01*
X142344876Y-95046630D02*
X142440114Y-94999011D01*
X142440114Y-94999011D02*
X142630590Y-94951392D01*
X142630590Y-94951392D02*
X142773447Y-94951392D01*
X142773447Y-94951392D02*
X142963923Y-94999011D01*
X142963923Y-94999011D02*
X143059161Y-95046630D01*
X143059161Y-95046630D02*
X143154400Y-95141868D01*
X143154400Y-95141868D02*
X143202019Y-95284725D01*
X143202019Y-95284725D02*
X143202019Y-95522820D01*
X143202019Y-94522820D02*
X142202019Y-94522820D01*
X140160380Y-94951392D02*
X140208000Y-94999011D01*
X140208000Y-94999011D02*
X140255619Y-95141868D01*
X140255619Y-95141868D02*
X140255619Y-95237106D01*
X140255619Y-95237106D02*
X140208000Y-95379963D01*
X140208000Y-95379963D02*
X140112761Y-95475201D01*
X140112761Y-95475201D02*
X140017523Y-95522820D01*
X140017523Y-95522820D02*
X139827047Y-95570439D01*
X139827047Y-95570439D02*
X139684190Y-95570439D01*
X139684190Y-95570439D02*
X139493714Y-95522820D01*
X139493714Y-95522820D02*
X139398476Y-95475201D01*
X139398476Y-95475201D02*
X139303238Y-95379963D01*
X139303238Y-95379963D02*
X139255619Y-95237106D01*
X139255619Y-95237106D02*
X139255619Y-95141868D01*
X139255619Y-95141868D02*
X139303238Y-94999011D01*
X139303238Y-94999011D02*
X139350857Y-94951392D01*
X140208000Y-94570439D02*
X140255619Y-94427582D01*
X140255619Y-94427582D02*
X140255619Y-94189487D01*
X140255619Y-94189487D02*
X140208000Y-94094249D01*
X140208000Y-94094249D02*
X140160380Y-94046630D01*
X140160380Y-94046630D02*
X140065142Y-93999011D01*
X140065142Y-93999011D02*
X139969904Y-93999011D01*
X139969904Y-93999011D02*
X139874666Y-94046630D01*
X139874666Y-94046630D02*
X139827047Y-94094249D01*
X139827047Y-94094249D02*
X139779428Y-94189487D01*
X139779428Y-94189487D02*
X139731809Y-94379963D01*
X139731809Y-94379963D02*
X139684190Y-94475201D01*
X139684190Y-94475201D02*
X139636571Y-94522820D01*
X139636571Y-94522820D02*
X139541333Y-94570439D01*
X139541333Y-94570439D02*
X139446095Y-94570439D01*
X139446095Y-94570439D02*
X139350857Y-94522820D01*
X139350857Y-94522820D02*
X139303238Y-94475201D01*
X139303238Y-94475201D02*
X139255619Y-94379963D01*
X139255619Y-94379963D02*
X139255619Y-94141868D01*
X139255619Y-94141868D02*
X139303238Y-93999011D01*
X149564838Y-99215411D02*
X149517219Y-99310649D01*
X149517219Y-99310649D02*
X149517219Y-99453506D01*
X149517219Y-99453506D02*
X149564838Y-99596363D01*
X149564838Y-99596363D02*
X149660076Y-99691601D01*
X149660076Y-99691601D02*
X149755314Y-99739220D01*
X149755314Y-99739220D02*
X149945790Y-99786839D01*
X149945790Y-99786839D02*
X150088647Y-99786839D01*
X150088647Y-99786839D02*
X150279123Y-99739220D01*
X150279123Y-99739220D02*
X150374361Y-99691601D01*
X150374361Y-99691601D02*
X150469600Y-99596363D01*
X150469600Y-99596363D02*
X150517219Y-99453506D01*
X150517219Y-99453506D02*
X150517219Y-99358268D01*
X150517219Y-99358268D02*
X150469600Y-99215411D01*
X150469600Y-99215411D02*
X150421980Y-99167792D01*
X150421980Y-99167792D02*
X150088647Y-99167792D01*
X150088647Y-99167792D02*
X150088647Y-99358268D01*
X150517219Y-98739220D02*
X149517219Y-98739220D01*
X149517219Y-98739220D02*
X150517219Y-98167792D01*
X150517219Y-98167792D02*
X149517219Y-98167792D01*
X150517219Y-97691601D02*
X149517219Y-97691601D01*
X149517219Y-97691601D02*
X149517219Y-97453506D01*
X149517219Y-97453506D02*
X149564838Y-97310649D01*
X149564838Y-97310649D02*
X149660076Y-97215411D01*
X149660076Y-97215411D02*
X149755314Y-97167792D01*
X149755314Y-97167792D02*
X149945790Y-97120173D01*
X149945790Y-97120173D02*
X150088647Y-97120173D01*
X150088647Y-97120173D02*
X150279123Y-97167792D01*
X150279123Y-97167792D02*
X150374361Y-97215411D01*
X150374361Y-97215411D02*
X150469600Y-97310649D01*
X150469600Y-97310649D02*
X150517219Y-97453506D01*
X150517219Y-97453506D02*
X150517219Y-97691601D01*
X146596219Y-99834458D02*
X146596219Y-99215411D01*
X146596219Y-99215411D02*
X146977171Y-99548744D01*
X146977171Y-99548744D02*
X146977171Y-99405887D01*
X146977171Y-99405887D02*
X147024790Y-99310649D01*
X147024790Y-99310649D02*
X147072409Y-99263030D01*
X147072409Y-99263030D02*
X147167647Y-99215411D01*
X147167647Y-99215411D02*
X147405742Y-99215411D01*
X147405742Y-99215411D02*
X147500980Y-99263030D01*
X147500980Y-99263030D02*
X147548600Y-99310649D01*
X147548600Y-99310649D02*
X147596219Y-99405887D01*
X147596219Y-99405887D02*
X147596219Y-99691601D01*
X147596219Y-99691601D02*
X147548600Y-99786839D01*
X147548600Y-99786839D02*
X147500980Y-99834458D01*
X146596219Y-98929696D02*
X147596219Y-98596363D01*
X147596219Y-98596363D02*
X146596219Y-98263030D01*
X146596219Y-98024934D02*
X146596219Y-97405887D01*
X146596219Y-97405887D02*
X146977171Y-97739220D01*
X146977171Y-97739220D02*
X146977171Y-97596363D01*
X146977171Y-97596363D02*
X147024790Y-97501125D01*
X147024790Y-97501125D02*
X147072409Y-97453506D01*
X147072409Y-97453506D02*
X147167647Y-97405887D01*
X147167647Y-97405887D02*
X147405742Y-97405887D01*
X147405742Y-97405887D02*
X147500980Y-97453506D01*
X147500980Y-97453506D02*
X147548600Y-97501125D01*
X147548600Y-97501125D02*
X147596219Y-97596363D01*
X147596219Y-97596363D02*
X147596219Y-97882077D01*
X147596219Y-97882077D02*
X147548600Y-97977315D01*
X147548600Y-97977315D02*
X147500980Y-98024934D01*
X143675219Y-99263030D02*
X143675219Y-99739220D01*
X143675219Y-99739220D02*
X144151409Y-99786839D01*
X144151409Y-99786839D02*
X144103790Y-99739220D01*
X144103790Y-99739220D02*
X144056171Y-99643982D01*
X144056171Y-99643982D02*
X144056171Y-99405887D01*
X144056171Y-99405887D02*
X144103790Y-99310649D01*
X144103790Y-99310649D02*
X144151409Y-99263030D01*
X144151409Y-99263030D02*
X144246647Y-99215411D01*
X144246647Y-99215411D02*
X144484742Y-99215411D01*
X144484742Y-99215411D02*
X144579980Y-99263030D01*
X144579980Y-99263030D02*
X144627600Y-99310649D01*
X144627600Y-99310649D02*
X144675219Y-99405887D01*
X144675219Y-99405887D02*
X144675219Y-99643982D01*
X144675219Y-99643982D02*
X144627600Y-99739220D01*
X144627600Y-99739220D02*
X144579980Y-99786839D01*
X143675219Y-98929696D02*
X144675219Y-98596363D01*
X144675219Y-98596363D02*
X143675219Y-98263030D01*
X140728819Y-99834458D02*
X140728819Y-99215411D01*
X140728819Y-99215411D02*
X141109771Y-99548744D01*
X141109771Y-99548744D02*
X141109771Y-99405887D01*
X141109771Y-99405887D02*
X141157390Y-99310649D01*
X141157390Y-99310649D02*
X141205009Y-99263030D01*
X141205009Y-99263030D02*
X141300247Y-99215411D01*
X141300247Y-99215411D02*
X141538342Y-99215411D01*
X141538342Y-99215411D02*
X141633580Y-99263030D01*
X141633580Y-99263030D02*
X141681200Y-99310649D01*
X141681200Y-99310649D02*
X141728819Y-99405887D01*
X141728819Y-99405887D02*
X141728819Y-99691601D01*
X141728819Y-99691601D02*
X141681200Y-99786839D01*
X141681200Y-99786839D02*
X141633580Y-99834458D01*
X140728819Y-98929696D02*
X141728819Y-98596363D01*
X141728819Y-98596363D02*
X140728819Y-98263030D01*
X140728819Y-98024934D02*
X140728819Y-97405887D01*
X140728819Y-97405887D02*
X141109771Y-97739220D01*
X141109771Y-97739220D02*
X141109771Y-97596363D01*
X141109771Y-97596363D02*
X141157390Y-97501125D01*
X141157390Y-97501125D02*
X141205009Y-97453506D01*
X141205009Y-97453506D02*
X141300247Y-97405887D01*
X141300247Y-97405887D02*
X141538342Y-97405887D01*
X141538342Y-97405887D02*
X141633580Y-97453506D01*
X141633580Y-97453506D02*
X141681200Y-97501125D01*
X141681200Y-97501125D02*
X141728819Y-97596363D01*
X141728819Y-97596363D02*
X141728819Y-97882077D01*
X141728819Y-97882077D02*
X141681200Y-97977315D01*
X141681200Y-97977315D02*
X141633580Y-98024934D01*
X137906238Y-99215411D02*
X137858619Y-99310649D01*
X137858619Y-99310649D02*
X137858619Y-99453506D01*
X137858619Y-99453506D02*
X137906238Y-99596363D01*
X137906238Y-99596363D02*
X138001476Y-99691601D01*
X138001476Y-99691601D02*
X138096714Y-99739220D01*
X138096714Y-99739220D02*
X138287190Y-99786839D01*
X138287190Y-99786839D02*
X138430047Y-99786839D01*
X138430047Y-99786839D02*
X138620523Y-99739220D01*
X138620523Y-99739220D02*
X138715761Y-99691601D01*
X138715761Y-99691601D02*
X138811000Y-99596363D01*
X138811000Y-99596363D02*
X138858619Y-99453506D01*
X138858619Y-99453506D02*
X138858619Y-99358268D01*
X138858619Y-99358268D02*
X138811000Y-99215411D01*
X138811000Y-99215411D02*
X138763380Y-99167792D01*
X138763380Y-99167792D02*
X138430047Y-99167792D01*
X138430047Y-99167792D02*
X138430047Y-99358268D01*
X138858619Y-98739220D02*
X137858619Y-98739220D01*
X137858619Y-98739220D02*
X138858619Y-98167792D01*
X138858619Y-98167792D02*
X137858619Y-98167792D01*
X138858619Y-97691601D02*
X137858619Y-97691601D01*
X137858619Y-97691601D02*
X137858619Y-97453506D01*
X137858619Y-97453506D02*
X137906238Y-97310649D01*
X137906238Y-97310649D02*
X138001476Y-97215411D01*
X138001476Y-97215411D02*
X138096714Y-97167792D01*
X138096714Y-97167792D02*
X138287190Y-97120173D01*
X138287190Y-97120173D02*
X138430047Y-97120173D01*
X138430047Y-97120173D02*
X138620523Y-97167792D01*
X138620523Y-97167792D02*
X138715761Y-97215411D01*
X138715761Y-97215411D02*
X138811000Y-97310649D01*
X138811000Y-97310649D02*
X138858619Y-97453506D01*
X138858619Y-97453506D02*
X138858619Y-97691601D01*
X137239380Y-94951392D02*
X137287000Y-94999011D01*
X137287000Y-94999011D02*
X137334619Y-95141868D01*
X137334619Y-95141868D02*
X137334619Y-95237106D01*
X137334619Y-95237106D02*
X137287000Y-95379963D01*
X137287000Y-95379963D02*
X137191761Y-95475201D01*
X137191761Y-95475201D02*
X137096523Y-95522820D01*
X137096523Y-95522820D02*
X136906047Y-95570439D01*
X136906047Y-95570439D02*
X136763190Y-95570439D01*
X136763190Y-95570439D02*
X136572714Y-95522820D01*
X136572714Y-95522820D02*
X136477476Y-95475201D01*
X136477476Y-95475201D02*
X136382238Y-95379963D01*
X136382238Y-95379963D02*
X136334619Y-95237106D01*
X136334619Y-95237106D02*
X136334619Y-95141868D01*
X136334619Y-95141868D02*
X136382238Y-94999011D01*
X136382238Y-94999011D02*
X136429857Y-94951392D01*
X137334619Y-94046630D02*
X137334619Y-94522820D01*
X137334619Y-94522820D02*
X136334619Y-94522820D01*
X137334619Y-93713296D02*
X136334619Y-93713296D01*
X137334619Y-93141868D02*
X136763190Y-93570439D01*
X136334619Y-93141868D02*
X136906047Y-93713296D01*
D11*
X138205217Y-66101476D02*
X138014741Y-66006238D01*
X138014741Y-66006238D02*
X137729027Y-66006238D01*
X137729027Y-66006238D02*
X137443312Y-66101476D01*
X137443312Y-66101476D02*
X137252836Y-66291952D01*
X137252836Y-66291952D02*
X137157598Y-66482428D01*
X137157598Y-66482428D02*
X137062360Y-66863380D01*
X137062360Y-66863380D02*
X137062360Y-67149095D01*
X137062360Y-67149095D02*
X137157598Y-67530047D01*
X137157598Y-67530047D02*
X137252836Y-67720523D01*
X137252836Y-67720523D02*
X137443312Y-67911000D01*
X137443312Y-67911000D02*
X137729027Y-68006238D01*
X137729027Y-68006238D02*
X137919503Y-68006238D01*
X137919503Y-68006238D02*
X138205217Y-67911000D01*
X138205217Y-67911000D02*
X138300455Y-67815761D01*
X138300455Y-67815761D02*
X138300455Y-67149095D01*
X138300455Y-67149095D02*
X137919503Y-67149095D01*
X140014741Y-68006238D02*
X140014741Y-66958619D01*
X140014741Y-66958619D02*
X139919503Y-66768142D01*
X139919503Y-66768142D02*
X139729027Y-66672904D01*
X139729027Y-66672904D02*
X139348074Y-66672904D01*
X139348074Y-66672904D02*
X139157598Y-66768142D01*
X140014741Y-67911000D02*
X139824265Y-68006238D01*
X139824265Y-68006238D02*
X139348074Y-68006238D01*
X139348074Y-68006238D02*
X139157598Y-67911000D01*
X139157598Y-67911000D02*
X139062360Y-67720523D01*
X139062360Y-67720523D02*
X139062360Y-67530047D01*
X139062360Y-67530047D02*
X139157598Y-67339571D01*
X139157598Y-67339571D02*
X139348074Y-67244333D01*
X139348074Y-67244333D02*
X139824265Y-67244333D01*
X139824265Y-67244333D02*
X140014741Y-67149095D01*
X140967122Y-68006238D02*
X140967122Y-66672904D01*
X140967122Y-66863380D02*
X141062360Y-66768142D01*
X141062360Y-66768142D02*
X141252836Y-66672904D01*
X141252836Y-66672904D02*
X141538551Y-66672904D01*
X141538551Y-66672904D02*
X141729027Y-66768142D01*
X141729027Y-66768142D02*
X141824265Y-66958619D01*
X141824265Y-66958619D02*
X141824265Y-68006238D01*
X141824265Y-66958619D02*
X141919503Y-66768142D01*
X141919503Y-66768142D02*
X142109979Y-66672904D01*
X142109979Y-66672904D02*
X142395693Y-66672904D01*
X142395693Y-66672904D02*
X142586170Y-66768142D01*
X142586170Y-66768142D02*
X142681408Y-66958619D01*
X142681408Y-66958619D02*
X142681408Y-68006238D01*
X144395694Y-67911000D02*
X144205218Y-68006238D01*
X144205218Y-68006238D02*
X143824265Y-68006238D01*
X143824265Y-68006238D02*
X143633789Y-67911000D01*
X143633789Y-67911000D02*
X143538551Y-67720523D01*
X143538551Y-67720523D02*
X143538551Y-66958619D01*
X143538551Y-66958619D02*
X143633789Y-66768142D01*
X143633789Y-66768142D02*
X143824265Y-66672904D01*
X143824265Y-66672904D02*
X144205218Y-66672904D01*
X144205218Y-66672904D02*
X144395694Y-66768142D01*
X144395694Y-66768142D02*
X144490932Y-66958619D01*
X144490932Y-66958619D02*
X144490932Y-67149095D01*
X144490932Y-67149095D02*
X143538551Y-67339571D01*
X146205218Y-67911000D02*
X146014742Y-68006238D01*
X146014742Y-68006238D02*
X145633789Y-68006238D01*
X145633789Y-68006238D02*
X145443313Y-67911000D01*
X145443313Y-67911000D02*
X145348075Y-67815761D01*
X145348075Y-67815761D02*
X145252837Y-67625285D01*
X145252837Y-67625285D02*
X145252837Y-67053857D01*
X145252837Y-67053857D02*
X145348075Y-66863380D01*
X145348075Y-66863380D02*
X145443313Y-66768142D01*
X145443313Y-66768142D02*
X145633789Y-66672904D01*
X145633789Y-66672904D02*
X146014742Y-66672904D01*
X146014742Y-66672904D02*
X146205218Y-66768142D01*
X147919504Y-66672904D02*
X147919504Y-68006238D01*
X147062361Y-66672904D02*
X147062361Y-67720523D01*
X147062361Y-67720523D02*
X147157599Y-67911000D01*
X147157599Y-67911000D02*
X147348075Y-68006238D01*
X147348075Y-68006238D02*
X147633790Y-68006238D01*
X147633790Y-68006238D02*
X147824266Y-67911000D01*
X147824266Y-67911000D02*
X147919504Y-67815761D01*
X148871885Y-68006238D02*
X148871885Y-66006238D01*
X148871885Y-66768142D02*
X149062361Y-66672904D01*
X149062361Y-66672904D02*
X149443314Y-66672904D01*
X149443314Y-66672904D02*
X149633790Y-66768142D01*
X149633790Y-66768142D02*
X149729028Y-66863380D01*
X149729028Y-66863380D02*
X149824266Y-67053857D01*
X149824266Y-67053857D02*
X149824266Y-67625285D01*
X149824266Y-67625285D02*
X149729028Y-67815761D01*
X149729028Y-67815761D02*
X149633790Y-67911000D01*
X149633790Y-67911000D02*
X149443314Y-68006238D01*
X149443314Y-68006238D02*
X149062361Y-68006238D01*
X149062361Y-68006238D02*
X148871885Y-67911000D01*
X151443314Y-67911000D02*
X151252838Y-68006238D01*
X151252838Y-68006238D02*
X150871885Y-68006238D01*
X150871885Y-68006238D02*
X150681409Y-67911000D01*
X150681409Y-67911000D02*
X150586171Y-67720523D01*
X150586171Y-67720523D02*
X150586171Y-66958619D01*
X150586171Y-66958619D02*
X150681409Y-66768142D01*
X150681409Y-66768142D02*
X150871885Y-66672904D01*
X150871885Y-66672904D02*
X151252838Y-66672904D01*
X151252838Y-66672904D02*
X151443314Y-66768142D01*
X151443314Y-66768142D02*
X151538552Y-66958619D01*
X151538552Y-66958619D02*
X151538552Y-67149095D01*
X151538552Y-67149095D02*
X150586171Y-67339571D01*
X134109978Y-71226238D02*
X134109978Y-69226238D01*
X134109978Y-69226238D02*
X134776645Y-70654809D01*
X134776645Y-70654809D02*
X135443311Y-69226238D01*
X135443311Y-69226238D02*
X135443311Y-71226238D01*
X137157597Y-71131000D02*
X136967121Y-71226238D01*
X136967121Y-71226238D02*
X136586168Y-71226238D01*
X136586168Y-71226238D02*
X136395692Y-71131000D01*
X136395692Y-71131000D02*
X136300454Y-70940523D01*
X136300454Y-70940523D02*
X136300454Y-70178619D01*
X136300454Y-70178619D02*
X136395692Y-69988142D01*
X136395692Y-69988142D02*
X136586168Y-69892904D01*
X136586168Y-69892904D02*
X136967121Y-69892904D01*
X136967121Y-69892904D02*
X137157597Y-69988142D01*
X137157597Y-69988142D02*
X137252835Y-70178619D01*
X137252835Y-70178619D02*
X137252835Y-70369095D01*
X137252835Y-70369095D02*
X136300454Y-70559571D01*
X138109978Y-71226238D02*
X138109978Y-69892904D01*
X138109978Y-70083380D02*
X138205216Y-69988142D01*
X138205216Y-69988142D02*
X138395692Y-69892904D01*
X138395692Y-69892904D02*
X138681407Y-69892904D01*
X138681407Y-69892904D02*
X138871883Y-69988142D01*
X138871883Y-69988142D02*
X138967121Y-70178619D01*
X138967121Y-70178619D02*
X138967121Y-71226238D01*
X138967121Y-70178619D02*
X139062359Y-69988142D01*
X139062359Y-69988142D02*
X139252835Y-69892904D01*
X139252835Y-69892904D02*
X139538549Y-69892904D01*
X139538549Y-69892904D02*
X139729026Y-69988142D01*
X139729026Y-69988142D02*
X139824264Y-70178619D01*
X139824264Y-70178619D02*
X139824264Y-71226238D01*
X141633788Y-71131000D02*
X141443312Y-71226238D01*
X141443312Y-71226238D02*
X141062359Y-71226238D01*
X141062359Y-71226238D02*
X140871883Y-71131000D01*
X140871883Y-71131000D02*
X140776645Y-71035761D01*
X140776645Y-71035761D02*
X140681407Y-70845285D01*
X140681407Y-70845285D02*
X140681407Y-70273857D01*
X140681407Y-70273857D02*
X140776645Y-70083380D01*
X140776645Y-70083380D02*
X140871883Y-69988142D01*
X140871883Y-69988142D02*
X141062359Y-69892904D01*
X141062359Y-69892904D02*
X141443312Y-69892904D01*
X141443312Y-69892904D02*
X141633788Y-69988142D01*
X143348074Y-71226238D02*
X143348074Y-70178619D01*
X143348074Y-70178619D02*
X143252836Y-69988142D01*
X143252836Y-69988142D02*
X143062360Y-69892904D01*
X143062360Y-69892904D02*
X142681407Y-69892904D01*
X142681407Y-69892904D02*
X142490931Y-69988142D01*
X143348074Y-71131000D02*
X143157598Y-71226238D01*
X143157598Y-71226238D02*
X142681407Y-71226238D01*
X142681407Y-71226238D02*
X142490931Y-71131000D01*
X142490931Y-71131000D02*
X142395693Y-70940523D01*
X142395693Y-70940523D02*
X142395693Y-70750047D01*
X142395693Y-70750047D02*
X142490931Y-70559571D01*
X142490931Y-70559571D02*
X142681407Y-70464333D01*
X142681407Y-70464333D02*
X143157598Y-70464333D01*
X143157598Y-70464333D02*
X143348074Y-70369095D01*
X144300455Y-71226238D02*
X144300455Y-69892904D01*
X144300455Y-70273857D02*
X144395693Y-70083380D01*
X144395693Y-70083380D02*
X144490931Y-69988142D01*
X144490931Y-69988142D02*
X144681407Y-69892904D01*
X144681407Y-69892904D02*
X144871884Y-69892904D01*
X146395693Y-71226238D02*
X146395693Y-69226238D01*
X146395693Y-71131000D02*
X146205217Y-71226238D01*
X146205217Y-71226238D02*
X145824264Y-71226238D01*
X145824264Y-71226238D02*
X145633788Y-71131000D01*
X145633788Y-71131000D02*
X145538550Y-71035761D01*
X145538550Y-71035761D02*
X145443312Y-70845285D01*
X145443312Y-70845285D02*
X145443312Y-70273857D01*
X145443312Y-70273857D02*
X145538550Y-70083380D01*
X145538550Y-70083380D02*
X145633788Y-69988142D01*
X145633788Y-69988142D02*
X145824264Y-69892904D01*
X145824264Y-69892904D02*
X146205217Y-69892904D01*
X146205217Y-69892904D02*
X146395693Y-69988142D01*
X148776646Y-71131000D02*
X149062360Y-71226238D01*
X149062360Y-71226238D02*
X149538551Y-71226238D01*
X149538551Y-71226238D02*
X149729027Y-71131000D01*
X149729027Y-71131000D02*
X149824265Y-71035761D01*
X149824265Y-71035761D02*
X149919503Y-70845285D01*
X149919503Y-70845285D02*
X149919503Y-70654809D01*
X149919503Y-70654809D02*
X149824265Y-70464333D01*
X149824265Y-70464333D02*
X149729027Y-70369095D01*
X149729027Y-70369095D02*
X149538551Y-70273857D01*
X149538551Y-70273857D02*
X149157598Y-70178619D01*
X149157598Y-70178619D02*
X148967122Y-70083380D01*
X148967122Y-70083380D02*
X148871884Y-69988142D01*
X148871884Y-69988142D02*
X148776646Y-69797666D01*
X148776646Y-69797666D02*
X148776646Y-69607190D01*
X148776646Y-69607190D02*
X148871884Y-69416714D01*
X148871884Y-69416714D02*
X148967122Y-69321476D01*
X148967122Y-69321476D02*
X149157598Y-69226238D01*
X149157598Y-69226238D02*
X149633789Y-69226238D01*
X149633789Y-69226238D02*
X149919503Y-69321476D01*
X151062360Y-71226238D02*
X150871884Y-71131000D01*
X150871884Y-71131000D02*
X150776646Y-70940523D01*
X150776646Y-70940523D02*
X150776646Y-69226238D01*
X152109979Y-71226238D02*
X151919503Y-71131000D01*
X151919503Y-71131000D02*
X151824265Y-71035761D01*
X151824265Y-71035761D02*
X151729027Y-70845285D01*
X151729027Y-70845285D02*
X151729027Y-70273857D01*
X151729027Y-70273857D02*
X151824265Y-70083380D01*
X151824265Y-70083380D02*
X151919503Y-69988142D01*
X151919503Y-69988142D02*
X152109979Y-69892904D01*
X152109979Y-69892904D02*
X152395694Y-69892904D01*
X152395694Y-69892904D02*
X152586170Y-69988142D01*
X152586170Y-69988142D02*
X152681408Y-70083380D01*
X152681408Y-70083380D02*
X152776646Y-70273857D01*
X152776646Y-70273857D02*
X152776646Y-70845285D01*
X152776646Y-70845285D02*
X152681408Y-71035761D01*
X152681408Y-71035761D02*
X152586170Y-71131000D01*
X152586170Y-71131000D02*
X152395694Y-71226238D01*
X152395694Y-71226238D02*
X152109979Y-71226238D01*
X153348075Y-69892904D02*
X154109979Y-69892904D01*
X153633789Y-69226238D02*
X153633789Y-70940523D01*
X153633789Y-70940523D02*
X153729027Y-71131000D01*
X153729027Y-71131000D02*
X153919503Y-71226238D01*
X153919503Y-71226238D02*
X154109979Y-71226238D01*
X133252835Y-73398619D02*
X133538549Y-73493857D01*
X133538549Y-73493857D02*
X133633787Y-73589095D01*
X133633787Y-73589095D02*
X133729025Y-73779571D01*
X133729025Y-73779571D02*
X133729025Y-74065285D01*
X133729025Y-74065285D02*
X133633787Y-74255761D01*
X133633787Y-74255761D02*
X133538549Y-74351000D01*
X133538549Y-74351000D02*
X133348073Y-74446238D01*
X133348073Y-74446238D02*
X132586168Y-74446238D01*
X132586168Y-74446238D02*
X132586168Y-72446238D01*
X132586168Y-72446238D02*
X133252835Y-72446238D01*
X133252835Y-72446238D02*
X133443311Y-72541476D01*
X133443311Y-72541476D02*
X133538549Y-72636714D01*
X133538549Y-72636714D02*
X133633787Y-72827190D01*
X133633787Y-72827190D02*
X133633787Y-73017666D01*
X133633787Y-73017666D02*
X133538549Y-73208142D01*
X133538549Y-73208142D02*
X133443311Y-73303380D01*
X133443311Y-73303380D02*
X133252835Y-73398619D01*
X133252835Y-73398619D02*
X132586168Y-73398619D01*
X134586168Y-74446238D02*
X134586168Y-73112904D01*
X134586168Y-73493857D02*
X134681406Y-73303380D01*
X134681406Y-73303380D02*
X134776644Y-73208142D01*
X134776644Y-73208142D02*
X134967120Y-73112904D01*
X134967120Y-73112904D02*
X135157597Y-73112904D01*
X136586168Y-74351000D02*
X136395692Y-74446238D01*
X136395692Y-74446238D02*
X136014739Y-74446238D01*
X136014739Y-74446238D02*
X135824263Y-74351000D01*
X135824263Y-74351000D02*
X135729025Y-74160523D01*
X135729025Y-74160523D02*
X135729025Y-73398619D01*
X135729025Y-73398619D02*
X135824263Y-73208142D01*
X135824263Y-73208142D02*
X136014739Y-73112904D01*
X136014739Y-73112904D02*
X136395692Y-73112904D01*
X136395692Y-73112904D02*
X136586168Y-73208142D01*
X136586168Y-73208142D02*
X136681406Y-73398619D01*
X136681406Y-73398619D02*
X136681406Y-73589095D01*
X136681406Y-73589095D02*
X135729025Y-73779571D01*
X138395692Y-74446238D02*
X138395692Y-73398619D01*
X138395692Y-73398619D02*
X138300454Y-73208142D01*
X138300454Y-73208142D02*
X138109978Y-73112904D01*
X138109978Y-73112904D02*
X137729025Y-73112904D01*
X137729025Y-73112904D02*
X137538549Y-73208142D01*
X138395692Y-74351000D02*
X138205216Y-74446238D01*
X138205216Y-74446238D02*
X137729025Y-74446238D01*
X137729025Y-74446238D02*
X137538549Y-74351000D01*
X137538549Y-74351000D02*
X137443311Y-74160523D01*
X137443311Y-74160523D02*
X137443311Y-73970047D01*
X137443311Y-73970047D02*
X137538549Y-73779571D01*
X137538549Y-73779571D02*
X137729025Y-73684333D01*
X137729025Y-73684333D02*
X138205216Y-73684333D01*
X138205216Y-73684333D02*
X138395692Y-73589095D01*
X139348073Y-74446238D02*
X139348073Y-72446238D01*
X139538549Y-73684333D02*
X140109978Y-74446238D01*
X140109978Y-73112904D02*
X139348073Y-73874809D01*
X141252835Y-74446238D02*
X141062359Y-74351000D01*
X141062359Y-74351000D02*
X140967121Y-74255761D01*
X140967121Y-74255761D02*
X140871883Y-74065285D01*
X140871883Y-74065285D02*
X140871883Y-73493857D01*
X140871883Y-73493857D02*
X140967121Y-73303380D01*
X140967121Y-73303380D02*
X141062359Y-73208142D01*
X141062359Y-73208142D02*
X141252835Y-73112904D01*
X141252835Y-73112904D02*
X141538550Y-73112904D01*
X141538550Y-73112904D02*
X141729026Y-73208142D01*
X141729026Y-73208142D02*
X141824264Y-73303380D01*
X141824264Y-73303380D02*
X141919502Y-73493857D01*
X141919502Y-73493857D02*
X141919502Y-74065285D01*
X141919502Y-74065285D02*
X141824264Y-74255761D01*
X141824264Y-74255761D02*
X141729026Y-74351000D01*
X141729026Y-74351000D02*
X141538550Y-74446238D01*
X141538550Y-74446238D02*
X141252835Y-74446238D01*
X143633788Y-73112904D02*
X143633788Y-74446238D01*
X142776645Y-73112904D02*
X142776645Y-74160523D01*
X142776645Y-74160523D02*
X142871883Y-74351000D01*
X142871883Y-74351000D02*
X143062359Y-74446238D01*
X143062359Y-74446238D02*
X143348074Y-74446238D01*
X143348074Y-74446238D02*
X143538550Y-74351000D01*
X143538550Y-74351000D02*
X143633788Y-74255761D01*
X144300455Y-73112904D02*
X145062359Y-73112904D01*
X144586169Y-72446238D02*
X144586169Y-74160523D01*
X144586169Y-74160523D02*
X144681407Y-74351000D01*
X144681407Y-74351000D02*
X144871883Y-74446238D01*
X144871883Y-74446238D02*
X145062359Y-74446238D01*
X147919503Y-73398619D02*
X148205217Y-73493857D01*
X148205217Y-73493857D02*
X148300455Y-73589095D01*
X148300455Y-73589095D02*
X148395693Y-73779571D01*
X148395693Y-73779571D02*
X148395693Y-74065285D01*
X148395693Y-74065285D02*
X148300455Y-74255761D01*
X148300455Y-74255761D02*
X148205217Y-74351000D01*
X148205217Y-74351000D02*
X148014741Y-74446238D01*
X148014741Y-74446238D02*
X147252836Y-74446238D01*
X147252836Y-74446238D02*
X147252836Y-72446238D01*
X147252836Y-72446238D02*
X147919503Y-72446238D01*
X147919503Y-72446238D02*
X148109979Y-72541476D01*
X148109979Y-72541476D02*
X148205217Y-72636714D01*
X148205217Y-72636714D02*
X148300455Y-72827190D01*
X148300455Y-72827190D02*
X148300455Y-73017666D01*
X148300455Y-73017666D02*
X148205217Y-73208142D01*
X148205217Y-73208142D02*
X148109979Y-73303380D01*
X148109979Y-73303380D02*
X147919503Y-73398619D01*
X147919503Y-73398619D02*
X147252836Y-73398619D01*
X149538550Y-74446238D02*
X149348074Y-74351000D01*
X149348074Y-74351000D02*
X149252836Y-74255761D01*
X149252836Y-74255761D02*
X149157598Y-74065285D01*
X149157598Y-74065285D02*
X149157598Y-73493857D01*
X149157598Y-73493857D02*
X149252836Y-73303380D01*
X149252836Y-73303380D02*
X149348074Y-73208142D01*
X149348074Y-73208142D02*
X149538550Y-73112904D01*
X149538550Y-73112904D02*
X149824265Y-73112904D01*
X149824265Y-73112904D02*
X150014741Y-73208142D01*
X150014741Y-73208142D02*
X150109979Y-73303380D01*
X150109979Y-73303380D02*
X150205217Y-73493857D01*
X150205217Y-73493857D02*
X150205217Y-74065285D01*
X150205217Y-74065285D02*
X150109979Y-74255761D01*
X150109979Y-74255761D02*
X150014741Y-74351000D01*
X150014741Y-74351000D02*
X149824265Y-74446238D01*
X149824265Y-74446238D02*
X149538550Y-74446238D01*
X151919503Y-74446238D02*
X151919503Y-73398619D01*
X151919503Y-73398619D02*
X151824265Y-73208142D01*
X151824265Y-73208142D02*
X151633789Y-73112904D01*
X151633789Y-73112904D02*
X151252836Y-73112904D01*
X151252836Y-73112904D02*
X151062360Y-73208142D01*
X151919503Y-74351000D02*
X151729027Y-74446238D01*
X151729027Y-74446238D02*
X151252836Y-74446238D01*
X151252836Y-74446238D02*
X151062360Y-74351000D01*
X151062360Y-74351000D02*
X150967122Y-74160523D01*
X150967122Y-74160523D02*
X150967122Y-73970047D01*
X150967122Y-73970047D02*
X151062360Y-73779571D01*
X151062360Y-73779571D02*
X151252836Y-73684333D01*
X151252836Y-73684333D02*
X151729027Y-73684333D01*
X151729027Y-73684333D02*
X151919503Y-73589095D01*
X152871884Y-74446238D02*
X152871884Y-73112904D01*
X152871884Y-73493857D02*
X152967122Y-73303380D01*
X152967122Y-73303380D02*
X153062360Y-73208142D01*
X153062360Y-73208142D02*
X153252836Y-73112904D01*
X153252836Y-73112904D02*
X153443313Y-73112904D01*
X154967122Y-74446238D02*
X154967122Y-72446238D01*
X154967122Y-74351000D02*
X154776646Y-74446238D01*
X154776646Y-74446238D02*
X154395693Y-74446238D01*
X154395693Y-74446238D02*
X154205217Y-74351000D01*
X154205217Y-74351000D02*
X154109979Y-74255761D01*
X154109979Y-74255761D02*
X154014741Y-74065285D01*
X154014741Y-74065285D02*
X154014741Y-73493857D01*
X154014741Y-73493857D02*
X154109979Y-73303380D01*
X154109979Y-73303380D02*
X154205217Y-73208142D01*
X154205217Y-73208142D02*
X154395693Y-73112904D01*
X154395693Y-73112904D02*
X154776646Y-73112904D01*
X154776646Y-73112904D02*
X154967122Y-73208142D01*
D12*
X132208584Y-61598462D02*
X132246680Y-61636558D01*
X132246680Y-61636558D02*
X132284775Y-61750843D01*
X132284775Y-61750843D02*
X132284775Y-61827034D01*
X132284775Y-61827034D02*
X132246680Y-61941320D01*
X132246680Y-61941320D02*
X132170489Y-62017510D01*
X132170489Y-62017510D02*
X132094299Y-62055605D01*
X132094299Y-62055605D02*
X131941918Y-62093701D01*
X131941918Y-62093701D02*
X131827632Y-62093701D01*
X131827632Y-62093701D02*
X131675251Y-62055605D01*
X131675251Y-62055605D02*
X131599060Y-62017510D01*
X131599060Y-62017510D02*
X131522870Y-61941320D01*
X131522870Y-61941320D02*
X131484775Y-61827034D01*
X131484775Y-61827034D02*
X131484775Y-61750843D01*
X131484775Y-61750843D02*
X131522870Y-61636558D01*
X131522870Y-61636558D02*
X131560965Y-61598462D01*
X132284775Y-60874653D02*
X132284775Y-61255605D01*
X132284775Y-61255605D02*
X131484775Y-61255605D01*
X132284775Y-60607986D02*
X131484775Y-60607986D01*
X132284775Y-60150843D02*
X131827632Y-60493701D01*
X131484775Y-60150843D02*
X131941918Y-60607986D01*
X134098870Y-61827034D02*
X134060775Y-61903224D01*
X134060775Y-61903224D02*
X134060775Y-62017510D01*
X134060775Y-62017510D02*
X134098870Y-62131796D01*
X134098870Y-62131796D02*
X134175060Y-62207986D01*
X134175060Y-62207986D02*
X134251251Y-62246081D01*
X134251251Y-62246081D02*
X134403632Y-62284177D01*
X134403632Y-62284177D02*
X134517918Y-62284177D01*
X134517918Y-62284177D02*
X134670299Y-62246081D01*
X134670299Y-62246081D02*
X134746489Y-62207986D01*
X134746489Y-62207986D02*
X134822680Y-62131796D01*
X134822680Y-62131796D02*
X134860775Y-62017510D01*
X134860775Y-62017510D02*
X134860775Y-61941319D01*
X134860775Y-61941319D02*
X134822680Y-61827034D01*
X134822680Y-61827034D02*
X134784584Y-61788938D01*
X134784584Y-61788938D02*
X134517918Y-61788938D01*
X134517918Y-61788938D02*
X134517918Y-61941319D01*
X134860775Y-61446081D02*
X134060775Y-61446081D01*
X134060775Y-61446081D02*
X134860775Y-60988938D01*
X134860775Y-60988938D02*
X134060775Y-60988938D01*
X134860775Y-60607986D02*
X134060775Y-60607986D01*
X134060775Y-60607986D02*
X134060775Y-60417510D01*
X134060775Y-60417510D02*
X134098870Y-60303224D01*
X134098870Y-60303224D02*
X134175060Y-60227034D01*
X134175060Y-60227034D02*
X134251251Y-60188939D01*
X134251251Y-60188939D02*
X134403632Y-60150843D01*
X134403632Y-60150843D02*
X134517918Y-60150843D01*
X134517918Y-60150843D02*
X134670299Y-60188939D01*
X134670299Y-60188939D02*
X134746489Y-60227034D01*
X134746489Y-60227034D02*
X134822680Y-60303224D01*
X134822680Y-60303224D02*
X134860775Y-60417510D01*
X134860775Y-60417510D02*
X134860775Y-60607986D01*
X137360584Y-60912748D02*
X137398680Y-60950844D01*
X137398680Y-60950844D02*
X137436775Y-61065129D01*
X137436775Y-61065129D02*
X137436775Y-61141320D01*
X137436775Y-61141320D02*
X137398680Y-61255606D01*
X137398680Y-61255606D02*
X137322489Y-61331796D01*
X137322489Y-61331796D02*
X137246299Y-61369891D01*
X137246299Y-61369891D02*
X137093918Y-61407987D01*
X137093918Y-61407987D02*
X136979632Y-61407987D01*
X136979632Y-61407987D02*
X136827251Y-61369891D01*
X136827251Y-61369891D02*
X136751060Y-61331796D01*
X136751060Y-61331796D02*
X136674870Y-61255606D01*
X136674870Y-61255606D02*
X136636775Y-61141320D01*
X136636775Y-61141320D02*
X136636775Y-61065129D01*
X136636775Y-61065129D02*
X136674870Y-60950844D01*
X136674870Y-60950844D02*
X136712965Y-60912748D01*
X137398680Y-60607987D02*
X137436775Y-60493701D01*
X137436775Y-60493701D02*
X137436775Y-60303225D01*
X137436775Y-60303225D02*
X137398680Y-60227034D01*
X137398680Y-60227034D02*
X137360584Y-60188939D01*
X137360584Y-60188939D02*
X137284394Y-60150844D01*
X137284394Y-60150844D02*
X137208203Y-60150844D01*
X137208203Y-60150844D02*
X137132013Y-60188939D01*
X137132013Y-60188939D02*
X137093918Y-60227034D01*
X137093918Y-60227034D02*
X137055822Y-60303225D01*
X137055822Y-60303225D02*
X137017727Y-60455606D01*
X137017727Y-60455606D02*
X136979632Y-60531796D01*
X136979632Y-60531796D02*
X136941537Y-60569891D01*
X136941537Y-60569891D02*
X136865346Y-60607987D01*
X136865346Y-60607987D02*
X136789156Y-60607987D01*
X136789156Y-60607987D02*
X136712965Y-60569891D01*
X136712965Y-60569891D02*
X136674870Y-60531796D01*
X136674870Y-60531796D02*
X136636775Y-60455606D01*
X136636775Y-60455606D02*
X136636775Y-60265129D01*
X136636775Y-60265129D02*
X136674870Y-60150844D01*
X139212775Y-62093701D02*
X139212775Y-61598463D01*
X139212775Y-61598463D02*
X139517537Y-61865129D01*
X139517537Y-61865129D02*
X139517537Y-61750844D01*
X139517537Y-61750844D02*
X139555632Y-61674653D01*
X139555632Y-61674653D02*
X139593727Y-61636558D01*
X139593727Y-61636558D02*
X139669918Y-61598463D01*
X139669918Y-61598463D02*
X139860394Y-61598463D01*
X139860394Y-61598463D02*
X139936584Y-61636558D01*
X139936584Y-61636558D02*
X139974680Y-61674653D01*
X139974680Y-61674653D02*
X140012775Y-61750844D01*
X140012775Y-61750844D02*
X140012775Y-61979415D01*
X140012775Y-61979415D02*
X139974680Y-62055606D01*
X139974680Y-62055606D02*
X139936584Y-62093701D01*
X139212775Y-61369891D02*
X140012775Y-61103224D01*
X140012775Y-61103224D02*
X139212775Y-60836558D01*
X139212775Y-60646082D02*
X139212775Y-60150844D01*
X139212775Y-60150844D02*
X139517537Y-60417510D01*
X139517537Y-60417510D02*
X139517537Y-60303225D01*
X139517537Y-60303225D02*
X139555632Y-60227034D01*
X139555632Y-60227034D02*
X139593727Y-60188939D01*
X139593727Y-60188939D02*
X139669918Y-60150844D01*
X139669918Y-60150844D02*
X139860394Y-60150844D01*
X139860394Y-60150844D02*
X139936584Y-60188939D01*
X139936584Y-60188939D02*
X139974680Y-60227034D01*
X139974680Y-60227034D02*
X140012775Y-60303225D01*
X140012775Y-60303225D02*
X140012775Y-60531796D01*
X140012775Y-60531796D02*
X139974680Y-60607987D01*
X139974680Y-60607987D02*
X139936584Y-60646082D01*
X142588775Y-60988938D02*
X141788775Y-60988938D01*
X141788775Y-60988938D02*
X141788775Y-60798462D01*
X141788775Y-60798462D02*
X141826870Y-60684176D01*
X141826870Y-60684176D02*
X141903060Y-60607986D01*
X141903060Y-60607986D02*
X141979251Y-60569891D01*
X141979251Y-60569891D02*
X142131632Y-60531795D01*
X142131632Y-60531795D02*
X142245918Y-60531795D01*
X142245918Y-60531795D02*
X142398299Y-60569891D01*
X142398299Y-60569891D02*
X142474489Y-60607986D01*
X142474489Y-60607986D02*
X142550680Y-60684176D01*
X142550680Y-60684176D02*
X142588775Y-60798462D01*
X142588775Y-60798462D02*
X142588775Y-60988938D01*
X142588775Y-60188938D02*
X141788775Y-60188938D01*
X144364775Y-60874653D02*
X144364775Y-61255605D01*
X144364775Y-61255605D02*
X144745727Y-61293701D01*
X144745727Y-61293701D02*
X144707632Y-61255605D01*
X144707632Y-61255605D02*
X144669537Y-61179415D01*
X144669537Y-61179415D02*
X144669537Y-60988939D01*
X144669537Y-60988939D02*
X144707632Y-60912748D01*
X144707632Y-60912748D02*
X144745727Y-60874653D01*
X144745727Y-60874653D02*
X144821918Y-60836558D01*
X144821918Y-60836558D02*
X145012394Y-60836558D01*
X145012394Y-60836558D02*
X145088584Y-60874653D01*
X145088584Y-60874653D02*
X145126680Y-60912748D01*
X145126680Y-60912748D02*
X145164775Y-60988939D01*
X145164775Y-60988939D02*
X145164775Y-61179415D01*
X145164775Y-61179415D02*
X145126680Y-61255605D01*
X145126680Y-61255605D02*
X145088584Y-61293701D01*
X144364775Y-60607986D02*
X145164775Y-60341319D01*
X145164775Y-60341319D02*
X144364775Y-60074653D01*
X147740775Y-61446081D02*
X146940775Y-61446081D01*
X146940775Y-61446081D02*
X146940775Y-61255605D01*
X146940775Y-61255605D02*
X146978870Y-61141319D01*
X146978870Y-61141319D02*
X147055060Y-61065129D01*
X147055060Y-61065129D02*
X147131251Y-61027034D01*
X147131251Y-61027034D02*
X147283632Y-60988938D01*
X147283632Y-60988938D02*
X147397918Y-60988938D01*
X147397918Y-60988938D02*
X147550299Y-61027034D01*
X147550299Y-61027034D02*
X147626489Y-61065129D01*
X147626489Y-61065129D02*
X147702680Y-61141319D01*
X147702680Y-61141319D02*
X147740775Y-61255605D01*
X147740775Y-61255605D02*
X147740775Y-61446081D01*
X146940775Y-60493700D02*
X146940775Y-60341319D01*
X146940775Y-60341319D02*
X146978870Y-60265129D01*
X146978870Y-60265129D02*
X147055060Y-60188938D01*
X147055060Y-60188938D02*
X147207441Y-60150843D01*
X147207441Y-60150843D02*
X147474108Y-60150843D01*
X147474108Y-60150843D02*
X147626489Y-60188938D01*
X147626489Y-60188938D02*
X147702680Y-60265129D01*
X147702680Y-60265129D02*
X147740775Y-60341319D01*
X147740775Y-60341319D02*
X147740775Y-60493700D01*
X147740775Y-60493700D02*
X147702680Y-60569891D01*
X147702680Y-60569891D02*
X147626489Y-60646081D01*
X147626489Y-60646081D02*
X147474108Y-60684177D01*
X147474108Y-60684177D02*
X147207441Y-60684177D01*
X147207441Y-60684177D02*
X147055060Y-60646081D01*
X147055060Y-60646081D02*
X146978870Y-60569891D01*
X146978870Y-60569891D02*
X146940775Y-60493700D01*
X149516775Y-62093701D02*
X149516775Y-61598463D01*
X149516775Y-61598463D02*
X149821537Y-61865129D01*
X149821537Y-61865129D02*
X149821537Y-61750844D01*
X149821537Y-61750844D02*
X149859632Y-61674653D01*
X149859632Y-61674653D02*
X149897727Y-61636558D01*
X149897727Y-61636558D02*
X149973918Y-61598463D01*
X149973918Y-61598463D02*
X150164394Y-61598463D01*
X150164394Y-61598463D02*
X150240584Y-61636558D01*
X150240584Y-61636558D02*
X150278680Y-61674653D01*
X150278680Y-61674653D02*
X150316775Y-61750844D01*
X150316775Y-61750844D02*
X150316775Y-61979415D01*
X150316775Y-61979415D02*
X150278680Y-62055606D01*
X150278680Y-62055606D02*
X150240584Y-62093701D01*
X149516775Y-61369891D02*
X150316775Y-61103224D01*
X150316775Y-61103224D02*
X149516775Y-60836558D01*
X149516775Y-60646082D02*
X149516775Y-60150844D01*
X149516775Y-60150844D02*
X149821537Y-60417510D01*
X149821537Y-60417510D02*
X149821537Y-60303225D01*
X149821537Y-60303225D02*
X149859632Y-60227034D01*
X149859632Y-60227034D02*
X149897727Y-60188939D01*
X149897727Y-60188939D02*
X149973918Y-60150844D01*
X149973918Y-60150844D02*
X150164394Y-60150844D01*
X150164394Y-60150844D02*
X150240584Y-60188939D01*
X150240584Y-60188939D02*
X150278680Y-60227034D01*
X150278680Y-60227034D02*
X150316775Y-60303225D01*
X150316775Y-60303225D02*
X150316775Y-60531796D01*
X150316775Y-60531796D02*
X150278680Y-60607987D01*
X150278680Y-60607987D02*
X150240584Y-60646082D01*
X152892775Y-61636557D02*
X152092775Y-61636557D01*
X152892775Y-61255605D02*
X152092775Y-61255605D01*
X152092775Y-61255605D02*
X152892775Y-60798462D01*
X152892775Y-60798462D02*
X152092775Y-60798462D01*
X152092775Y-60531796D02*
X152092775Y-60074653D01*
X152892775Y-60303225D02*
X152092775Y-60303225D01*
X154706870Y-61827034D02*
X154668775Y-61903224D01*
X154668775Y-61903224D02*
X154668775Y-62017510D01*
X154668775Y-62017510D02*
X154706870Y-62131796D01*
X154706870Y-62131796D02*
X154783060Y-62207986D01*
X154783060Y-62207986D02*
X154859251Y-62246081D01*
X154859251Y-62246081D02*
X155011632Y-62284177D01*
X155011632Y-62284177D02*
X155125918Y-62284177D01*
X155125918Y-62284177D02*
X155278299Y-62246081D01*
X155278299Y-62246081D02*
X155354489Y-62207986D01*
X155354489Y-62207986D02*
X155430680Y-62131796D01*
X155430680Y-62131796D02*
X155468775Y-62017510D01*
X155468775Y-62017510D02*
X155468775Y-61941319D01*
X155468775Y-61941319D02*
X155430680Y-61827034D01*
X155430680Y-61827034D02*
X155392584Y-61788938D01*
X155392584Y-61788938D02*
X155125918Y-61788938D01*
X155125918Y-61788938D02*
X155125918Y-61941319D01*
X155468775Y-61446081D02*
X154668775Y-61446081D01*
X154668775Y-61446081D02*
X155468775Y-60988938D01*
X155468775Y-60988938D02*
X154668775Y-60988938D01*
X155468775Y-60607986D02*
X154668775Y-60607986D01*
X154668775Y-60607986D02*
X154668775Y-60417510D01*
X154668775Y-60417510D02*
X154706870Y-60303224D01*
X154706870Y-60303224D02*
X154783060Y-60227034D01*
X154783060Y-60227034D02*
X154859251Y-60188939D01*
X154859251Y-60188939D02*
X155011632Y-60150843D01*
X155011632Y-60150843D02*
X155125918Y-60150843D01*
X155125918Y-60150843D02*
X155278299Y-60188939D01*
X155278299Y-60188939D02*
X155354489Y-60227034D01*
X155354489Y-60227034D02*
X155430680Y-60303224D01*
X155430680Y-60303224D02*
X155468775Y-60417510D01*
X155468775Y-60417510D02*
X155468775Y-60607986D01*
D10*
X129179419Y-58346933D02*
X129893704Y-58346933D01*
X129893704Y-58346933D02*
X130036561Y-58394552D01*
X130036561Y-58394552D02*
X130131800Y-58489790D01*
X130131800Y-58489790D02*
X130179419Y-58632647D01*
X130179419Y-58632647D02*
X130179419Y-58727885D01*
X129274657Y-57918361D02*
X129227038Y-57870742D01*
X129227038Y-57870742D02*
X129179419Y-57775504D01*
X129179419Y-57775504D02*
X129179419Y-57537409D01*
X129179419Y-57537409D02*
X129227038Y-57442171D01*
X129227038Y-57442171D02*
X129274657Y-57394552D01*
X129274657Y-57394552D02*
X129369895Y-57346933D01*
X129369895Y-57346933D02*
X129465133Y-57346933D01*
X129465133Y-57346933D02*
X129607990Y-57394552D01*
X129607990Y-57394552D02*
X130179419Y-57965980D01*
X130179419Y-57965980D02*
X130179419Y-57346933D01*
X135111067Y-90876726D02*
X135111067Y-91783869D01*
X135111067Y-91783869D02*
X135050590Y-91965297D01*
X135050590Y-91965297D02*
X134929638Y-92086250D01*
X134929638Y-92086250D02*
X134748209Y-92146726D01*
X134748209Y-92146726D02*
X134627257Y-92146726D01*
X136381067Y-92146726D02*
X135655352Y-92146726D01*
X136018209Y-92146726D02*
X136018209Y-90876726D01*
X136018209Y-90876726D02*
X135897257Y-91058154D01*
X135897257Y-91058154D02*
X135776305Y-91179107D01*
X135776305Y-91179107D02*
X135655352Y-91239583D01*
%TO.C,*%
G36*
X141983721Y-80042403D02*
G01*
X142036854Y-80077895D01*
X142074337Y-80129725D01*
X142089598Y-80196361D01*
X142083824Y-80249792D01*
X142078224Y-80295210D01*
X142076598Y-80359152D01*
X142078388Y-80432456D01*
X142083031Y-80505957D01*
X142089970Y-80570492D01*
X142098644Y-80616897D01*
X142107390Y-80635537D01*
X142133782Y-80633424D01*
X142166108Y-80605020D01*
X142200063Y-80557999D01*
X142231340Y-80500037D01*
X142255633Y-80438805D01*
X142268638Y-80381980D01*
X142268610Y-80348210D01*
X142275481Y-80287455D01*
X142308815Y-80232606D01*
X142359851Y-80193793D01*
X142413276Y-80180943D01*
X142483298Y-80197498D01*
X142542174Y-80242580D01*
X142581042Y-80309314D01*
X142581845Y-80311696D01*
X142591346Y-80381683D01*
X142568784Y-80442171D01*
X142512665Y-80496507D01*
X142493603Y-80509279D01*
X142433486Y-80561666D01*
X142388560Y-80628804D01*
X142361178Y-80702405D01*
X142353694Y-80774182D01*
X142368462Y-80835848D01*
X142391919Y-80867329D01*
X142420484Y-80888249D01*
X142473783Y-80922748D01*
X142545640Y-80966997D01*
X142629880Y-81017167D01*
X142689021Y-81051524D01*
X142851287Y-81150256D01*
X142981939Y-81242435D01*
X143083605Y-81330774D01*
X143158914Y-81417989D01*
X143210496Y-81506792D01*
X143240979Y-81599898D01*
X143246001Y-81626544D01*
X143244392Y-81706688D01*
X143211491Y-81782103D01*
X143145632Y-81855909D01*
X143105851Y-81888624D01*
X143032330Y-81937782D01*
X142936841Y-81991863D01*
X142830736Y-82045307D01*
X142725370Y-82092554D01*
X142632094Y-82128045D01*
X142593016Y-82139780D01*
X142513278Y-82165568D01*
X142429292Y-82201085D01*
X142347644Y-82242494D01*
X142274919Y-82285954D01*
X142217703Y-82327627D01*
X142182582Y-82363675D01*
X142174670Y-82383623D01*
X142177385Y-82400376D01*
X142189210Y-82413083D01*
X142215600Y-82423303D01*
X142262010Y-82432598D01*
X142333895Y-82442527D01*
X142413697Y-82452010D01*
X142588012Y-82482999D01*
X142756524Y-82536372D01*
X142925208Y-82614732D01*
X143100036Y-82720682D01*
X143212275Y-82799990D01*
X143294169Y-82860622D01*
X143381817Y-82925489D01*
X143461707Y-82984592D01*
X143496577Y-83010378D01*
X143572016Y-83068166D01*
X143653126Y-83133433D01*
X143723157Y-83192680D01*
X143727164Y-83196211D01*
X143876617Y-83316292D01*
X144029732Y-83416791D01*
X144179813Y-83493796D01*
X144320163Y-83543395D01*
X144322389Y-83543969D01*
X144393727Y-83559243D01*
X144449825Y-83561990D01*
X144508392Y-83552818D01*
X144517530Y-83550682D01*
X144569432Y-83535888D01*
X144605309Y-83521301D01*
X144614045Y-83514750D01*
X144613652Y-83492701D01*
X144605887Y-83443324D01*
X144592049Y-83373688D01*
X144573436Y-83290863D01*
X144571215Y-83281511D01*
X144533120Y-83111807D01*
X144506432Y-82966850D01*
X144490115Y-82838166D01*
X144483130Y-82717281D01*
X144484442Y-82595722D01*
X144485204Y-82578661D01*
X144496447Y-82443414D01*
X144516638Y-82337562D01*
X144547469Y-82255774D01*
X144590634Y-82192722D01*
X144615635Y-82168068D01*
X144660230Y-82135867D01*
X144707885Y-82118894D01*
X144765439Y-82117157D01*
X144839733Y-82130661D01*
X144937606Y-82159412D01*
X144964776Y-82168385D01*
X145120877Y-82227098D01*
X145253111Y-82292143D01*
X145373084Y-82369659D01*
X145434036Y-82416576D01*
X145486304Y-82457925D01*
X145527598Y-82488837D01*
X145550614Y-82503894D01*
X145552621Y-82504546D01*
X145563572Y-82490498D01*
X145560751Y-82454594D01*
X145547236Y-82406195D01*
X145526107Y-82354661D01*
X145500443Y-82309353D01*
X145480575Y-82285551D01*
X145442259Y-82232773D01*
X145422062Y-82168846D01*
X145419929Y-82103541D01*
X145435806Y-82046628D01*
X145469639Y-82007880D01*
X145482145Y-82001684D01*
X145543847Y-81990382D01*
X145610005Y-81996371D01*
X145662986Y-82017794D01*
X145667484Y-82021201D01*
X145701845Y-82069353D01*
X145717628Y-82133169D01*
X145712383Y-82196719D01*
X145699065Y-82226688D01*
X145683325Y-82277919D01*
X145686747Y-82341811D01*
X145707452Y-82402462D01*
X145722539Y-82425231D01*
X145751335Y-82448761D01*
X145780256Y-82441357D01*
X145800307Y-82423827D01*
X145816328Y-82387129D01*
X145820989Y-82329223D01*
X145815505Y-82262073D01*
X145801088Y-82197642D01*
X145778953Y-82147894D01*
X145771299Y-82137961D01*
X145750501Y-82096448D01*
X145738569Y-82036386D01*
X145736375Y-81971994D01*
X145744786Y-81917491D01*
X145756381Y-81894069D01*
X145795312Y-81867632D01*
X145853296Y-81848673D01*
X145914101Y-81840984D01*
X145958094Y-81846937D01*
X146015762Y-81885404D01*
X146049369Y-81941998D01*
X146056128Y-82006944D01*
X146033249Y-82070470D01*
X146025117Y-82081834D01*
X145992452Y-82144537D01*
X145974727Y-82221369D01*
X145976090Y-82293204D01*
X145977700Y-82300449D01*
X145998183Y-82335383D01*
X146031596Y-82342724D01*
X146073397Y-82325753D01*
X146119048Y-82287754D01*
X146164008Y-82232009D01*
X146203736Y-82161800D01*
X146218770Y-82126171D01*
X146249247Y-82065021D01*
X146286935Y-82034313D01*
X146339927Y-82029024D01*
X146368624Y-82033163D01*
X146446229Y-82061841D01*
X146496702Y-82113090D01*
X146519159Y-82185880D01*
X146520306Y-82210067D01*
X146510830Y-82275270D01*
X146479235Y-82319168D01*
X146420772Y-82346523D01*
X146374333Y-82356423D01*
X146322892Y-82373320D01*
X146270535Y-82410743D01*
X146227999Y-82452783D01*
X146186798Y-82500746D01*
X146157866Y-82541905D01*
X146147820Y-82565867D01*
X146161072Y-82588684D01*
X146196514Y-82592742D01*
X146247678Y-82580189D01*
X146308095Y-82553173D01*
X146371297Y-82513844D01*
X146418319Y-82476041D01*
X146464901Y-82437917D01*
X146500377Y-82421576D01*
X146536767Y-82421899D01*
X146542838Y-82423026D01*
X146597114Y-82440265D01*
X146637115Y-82472027D01*
X146673259Y-82527310D01*
X146681239Y-82542562D01*
X146712165Y-82630643D01*
X146709401Y-82709514D01*
X146672755Y-82781650D01*
X146661462Y-82795351D01*
X146596048Y-82850638D01*
X146527624Y-82870659D01*
X146455738Y-82855527D01*
X146445075Y-82850459D01*
X146391654Y-82830736D01*
X146324559Y-82815300D01*
X146297229Y-82811445D01*
X146234952Y-82808534D01*
X146187215Y-82819162D01*
X146134265Y-82847787D01*
X146133158Y-82848485D01*
X146087415Y-82881024D01*
X146065511Y-82910456D01*
X146059236Y-82948886D01*
X146059133Y-82957643D01*
X146069998Y-83044873D01*
X146101250Y-83108397D01*
X146150877Y-83144715D01*
X146169712Y-83149908D01*
X146237545Y-83178323D01*
X146286425Y-83229381D01*
X146315344Y-83295127D01*
X146323295Y-83367602D01*
X146309269Y-83438849D01*
X146272260Y-83500912D01*
X146219350Y-83541886D01*
X146140160Y-83567694D01*
X146070579Y-83561224D01*
X146014086Y-83525136D01*
X145974162Y-83462093D01*
X145954286Y-83374757D01*
X145952708Y-83337894D01*
X145935678Y-83238215D01*
X145887157Y-83147368D01*
X145810998Y-83071153D01*
X145750012Y-83032975D01*
X145683513Y-83007611D01*
X145608074Y-82991929D01*
X145535054Y-82986965D01*
X145475814Y-82993759D01*
X145449341Y-83005515D01*
X145433955Y-83019295D01*
X145425910Y-83036917D01*
X145424958Y-83066137D01*
X145430853Y-83114708D01*
X145443346Y-83190388D01*
X145443425Y-83190846D01*
X145486210Y-83359029D01*
X145554363Y-83524198D01*
X145643428Y-83678990D01*
X145748950Y-83816040D01*
X145866472Y-83927986D01*
X145908125Y-83958851D01*
X145989239Y-84000590D01*
X146100998Y-84036233D01*
X146141246Y-84045800D01*
X146262600Y-84074833D01*
X146359984Y-84104051D01*
X146444677Y-84137632D01*
X146527959Y-84179751D01*
X146573518Y-84205862D01*
X146650909Y-84250082D01*
X146735890Y-84296432D01*
X146798739Y-84329106D01*
X146891790Y-84384659D01*
X147005994Y-84468493D01*
X147141228Y-84580507D01*
X147297366Y-84720598D01*
X147460451Y-84875239D01*
X147584491Y-84998413D01*
X147685338Y-85106078D01*
X147767871Y-85204415D01*
X147836968Y-85299603D01*
X147897509Y-85397821D01*
X147948405Y-85493303D01*
X147993204Y-85585941D01*
X148028622Y-85669570D01*
X148055760Y-85750315D01*
X148075714Y-85834299D01*
X148089585Y-85927649D01*
X148098472Y-86036487D01*
X148103472Y-86166940D01*
X148105685Y-86325131D01*
X148105939Y-86371306D01*
X148106272Y-86510783D01*
X148105682Y-86620623D01*
X148103802Y-86706663D01*
X148100265Y-86774737D01*
X148094704Y-86830680D01*
X148086750Y-86880327D01*
X148076036Y-86929513D01*
X148068997Y-86957845D01*
X147982745Y-87227798D01*
X147863200Y-87495471D01*
X147712502Y-87756892D01*
X147532792Y-88008088D01*
X147446988Y-88112134D01*
X147339171Y-88232784D01*
X147239304Y-88332958D01*
X147136760Y-88422401D01*
X147020912Y-88510859D01*
X146981479Y-88539010D01*
X146830398Y-88633774D01*
X146652814Y-88725500D01*
X146457693Y-88810509D01*
X146254003Y-88885123D01*
X146050709Y-88945665D01*
X145910789Y-88978239D01*
X145746870Y-89004362D01*
X145554989Y-89022969D01*
X145341851Y-89034057D01*
X145114162Y-89037624D01*
X144878628Y-89033671D01*
X144641957Y-89022194D01*
X144410855Y-89003193D01*
X144205571Y-88978595D01*
X144081578Y-88960738D01*
X143983317Y-88945265D01*
X143901318Y-88930177D01*
X143826112Y-88913470D01*
X143748227Y-88893142D01*
X143658195Y-88867193D01*
X143609003Y-88852490D01*
X143515987Y-88822656D01*
X143453771Y-88797281D01*
X143418438Y-88773533D01*
X143406072Y-88748581D01*
X143412755Y-88719594D01*
X143416058Y-88713017D01*
X143431410Y-88692002D01*
X143454821Y-88682508D01*
X143496547Y-88682224D01*
X143537016Y-88685750D01*
X143594667Y-88691089D01*
X143676699Y-88698128D01*
X143772117Y-88705945D01*
X143868560Y-88713515D01*
X143985839Y-88722653D01*
X144119365Y-88733299D01*
X144250039Y-88743921D01*
X144329733Y-88750534D01*
X144492886Y-88759530D01*
X144681719Y-88762076D01*
X144887110Y-88758600D01*
X145099937Y-88749529D01*
X145311079Y-88735289D01*
X145511413Y-88716310D01*
X145691817Y-88693017D01*
X145747547Y-88684098D01*
X145882143Y-88656082D01*
X146026047Y-88617316D01*
X146166772Y-88571697D01*
X146291833Y-88523127D01*
X146351800Y-88495376D01*
X146475953Y-88425505D01*
X146610216Y-88337155D01*
X146742162Y-88239242D01*
X146859364Y-88140683D01*
X146901325Y-88101120D01*
X147018918Y-87972106D01*
X147125113Y-87826274D01*
X147223223Y-87658259D01*
X147316559Y-87462702D01*
X147360555Y-87357683D01*
X147416533Y-87210170D01*
X147456476Y-87080866D01*
X147482742Y-86957644D01*
X147497687Y-86828380D01*
X147503672Y-86680947D01*
X147504087Y-86619630D01*
X147501098Y-86466960D01*
X147490480Y-86338733D01*
X147469805Y-86224300D01*
X147436643Y-86113013D01*
X147388567Y-85994223D01*
X147336202Y-85883527D01*
X147285565Y-85785163D01*
X147238569Y-85705933D01*
X147188428Y-85637237D01*
X147128357Y-85570476D01*
X147051569Y-85497051D01*
X146983207Y-85436180D01*
X146917785Y-85381069D01*
X146855229Y-85334123D01*
X146787621Y-85290403D01*
X146707049Y-85244970D01*
X146605597Y-85192886D01*
X146546912Y-85163953D01*
X146389096Y-85088803D01*
X146254779Y-85030102D01*
X146137092Y-84985964D01*
X146029162Y-84954503D01*
X145924121Y-84933833D01*
X145815098Y-84922069D01*
X145695222Y-84917324D01*
X145647096Y-84916971D01*
X145536582Y-84919239D01*
X145454090Y-84928745D01*
X145392337Y-84949243D01*
X145344043Y-84984488D01*
X145301926Y-85038236D01*
X145258703Y-85114240D01*
X145256554Y-85118361D01*
X145217850Y-85185821D01*
X145170866Y-85253231D01*
X145111651Y-85325092D01*
X145036257Y-85405902D01*
X144940735Y-85500161D01*
X144830816Y-85603427D01*
X144790262Y-85662222D01*
X144781215Y-85731426D01*
X144802568Y-85807493D01*
X144853215Y-85886874D01*
X144932048Y-85966022D01*
X144948000Y-85979061D01*
X145006522Y-86015396D01*
X145076084Y-86044134D01*
X145144232Y-86061345D01*
X145198515Y-86063099D01*
X145207527Y-86060967D01*
X145235054Y-86035205D01*
X145250795Y-85985454D01*
X145253075Y-85921728D01*
X145241447Y-85858027D01*
X145233493Y-85784941D01*
X145251575Y-85722544D01*
X145289422Y-85675205D01*
X145340763Y-85647294D01*
X145399327Y-85643178D01*
X145458844Y-85667228D01*
X145484528Y-85688665D01*
X145520613Y-85746278D01*
X145525426Y-85808709D01*
X145499978Y-85866512D01*
X145461824Y-85901030D01*
X145421211Y-85935801D01*
X145395980Y-85973876D01*
X145394523Y-85978434D01*
X145393074Y-86038054D01*
X145413036Y-86099344D01*
X145448442Y-86146992D01*
X145464594Y-86158278D01*
X145515464Y-86167385D01*
X145568443Y-86141283D01*
X145623663Y-86079895D01*
X145642105Y-86052346D01*
X145698792Y-85983744D01*
X145759617Y-85948979D01*
X145822395Y-85948515D01*
X145884937Y-85982816D01*
X145900860Y-85997456D01*
X145942935Y-86056393D01*
X145949597Y-86114473D01*
X145920846Y-86172942D01*
X145900860Y-86195296D01*
X145858459Y-86229811D01*
X145812549Y-86244685D01*
X145766663Y-86247144D01*
X145688514Y-86255148D01*
X145627495Y-86277057D01*
X145596204Y-86304158D01*
X145591182Y-86332458D01*
X145594254Y-86365761D01*
X145601951Y-86392552D01*
X145618174Y-86404318D01*
X145652999Y-86404778D01*
X145689423Y-86400890D01*
X145749518Y-86389140D01*
X145800408Y-86371423D01*
X145815048Y-86363238D01*
X145876815Y-86336386D01*
X145936934Y-86337307D01*
X145990126Y-86360394D01*
X146031108Y-86400044D01*
X146054599Y-86450650D01*
X146055317Y-86506607D01*
X146027983Y-86562310D01*
X146015595Y-86576093D01*
X145959195Y-86609878D01*
X145889213Y-86621203D01*
X145819912Y-86609591D01*
X145775334Y-86584155D01*
X145734271Y-86556640D01*
X145695226Y-86552900D01*
X145649736Y-86574336D01*
X145599855Y-86613254D01*
X145556774Y-86654771D01*
X145536479Y-86691136D01*
X145539968Y-86729096D01*
X145568240Y-86775396D01*
X145622294Y-86836783D01*
X145634910Y-86850030D01*
X145681630Y-86900144D01*
X145708082Y-86935388D01*
X145719053Y-86966003D01*
X145719332Y-87002230D01*
X145716970Y-87025543D01*
X145694722Y-87099847D01*
X145650824Y-87148663D01*
X145590351Y-87169832D01*
X145518380Y-87161192D01*
X145460971Y-87134499D01*
X145409728Y-87087819D01*
X145389786Y-87027510D01*
X145399148Y-86952975D01*
X145404365Y-86885468D01*
X145378558Y-86826350D01*
X145319861Y-86772249D01*
X145288046Y-86752011D01*
X145219950Y-86718134D01*
X145167302Y-86709499D01*
X145123558Y-86728470D01*
X145082176Y-86777412D01*
X145046630Y-86839247D01*
X144989112Y-86931288D01*
X144931341Y-86988003D01*
X144872952Y-87009539D01*
X144813585Y-86996045D01*
X144760793Y-86955863D01*
X144726658Y-86917020D01*
X144714217Y-86882374D01*
X144717541Y-86833867D01*
X144718558Y-86827267D01*
X144744510Y-86748329D01*
X144794713Y-86694322D01*
X144871196Y-86663342D01*
X144898777Y-86658367D01*
X144951456Y-86648808D01*
X144978450Y-86635385D01*
X144989458Y-86611687D01*
X144991667Y-86596953D01*
X144985868Y-86547864D01*
X144963671Y-86493682D01*
X144960627Y-86488564D01*
X144936286Y-86437959D01*
X144924222Y-86390879D01*
X144923937Y-86384908D01*
X144908662Y-86329661D01*
X144868440Y-86273408D01*
X144811677Y-86227230D01*
X144798942Y-86220107D01*
X144756428Y-86204783D01*
X144691854Y-86188944D01*
X144618440Y-86175783D01*
X144610938Y-86174711D01*
X144476342Y-86147964D01*
X144356384Y-86108459D01*
X144255569Y-86058709D01*
X144178404Y-86001228D01*
X144129396Y-85938530D01*
X144115130Y-85898154D01*
X144111906Y-85830126D01*
X144120973Y-85736303D01*
X144140694Y-85623520D01*
X144169434Y-85498607D01*
X144205557Y-85368398D01*
X144247426Y-85239726D01*
X144293405Y-85119422D01*
X144311791Y-85076930D01*
X144344256Y-85002942D01*
X144370391Y-84940046D01*
X144387167Y-84895749D01*
X144391814Y-84878622D01*
X144375349Y-84868150D01*
X144329204Y-84865199D01*
X144258258Y-84869271D01*
X144167386Y-84879867D01*
X144061467Y-84896489D01*
X143945377Y-84918639D01*
X143895166Y-84929380D01*
X143792175Y-84950794D01*
X143705614Y-84964833D01*
X143622181Y-84972817D01*
X143528570Y-84976066D01*
X143425124Y-84976039D01*
X143327763Y-84974380D01*
X143247175Y-84970546D01*
X143173427Y-84963210D01*
X143096587Y-84951044D01*
X143006723Y-84932721D01*
X142893901Y-84906911D01*
X142875264Y-84902520D01*
X142738017Y-84869242D01*
X142627411Y-84839960D01*
X142535264Y-84811902D01*
X142453394Y-84782295D01*
X142373619Y-84748366D01*
X142287757Y-84707342D01*
X142263489Y-84695203D01*
X142178864Y-84648376D01*
X142072575Y-84582986D01*
X141950313Y-84503053D01*
X141817773Y-84412597D01*
X141680647Y-84315637D01*
X141544630Y-84216192D01*
X141415414Y-84118284D01*
X141298693Y-84025930D01*
X141207946Y-83949942D01*
X141128293Y-83884171D01*
X141065768Y-83839718D01*
X141023333Y-83818613D01*
X141014000Y-83817116D01*
X141004203Y-83833037D01*
X141005016Y-83877294D01*
X141015655Y-83944627D01*
X141035336Y-84029777D01*
X141057380Y-84108237D01*
X141079846Y-84187199D01*
X141097592Y-84258020D01*
X141108299Y-84310974D01*
X141110390Y-84330910D01*
X141092982Y-84387636D01*
X141042030Y-84444642D01*
X140959441Y-84500926D01*
X140847124Y-84555489D01*
X140706985Y-84607332D01*
X140540933Y-84655453D01*
X140448466Y-84677879D01*
X140358750Y-84699048D01*
X140297651Y-84715767D01*
X140259002Y-84730541D01*
X140236631Y-84745872D01*
X140224371Y-84764264D01*
X140222130Y-84769720D01*
X140217026Y-84828161D01*
X140246571Y-84886499D01*
X140311111Y-84945314D01*
X140338984Y-84964185D01*
X140408115Y-85008937D01*
X140452988Y-85041372D01*
X140479385Y-85068036D01*
X140493090Y-85095481D01*
X140499885Y-85130255D01*
X140502103Y-85148919D01*
X140505348Y-85201285D01*
X140495862Y-85234979D01*
X140467505Y-85266185D01*
X140452821Y-85278813D01*
X140406472Y-85311153D01*
X140365853Y-85320203D01*
X140340017Y-85317071D01*
X140270093Y-85286244D01*
X140219577Y-85226640D01*
X140190189Y-85140652D01*
X140167918Y-85069065D01*
X140134275Y-85018198D01*
X140132275Y-85016324D01*
X140076763Y-84968443D01*
X140026104Y-84929301D01*
X139988100Y-84904651D01*
X139973258Y-84899099D01*
X139952411Y-84915204D01*
X139926752Y-84958554D01*
X139898875Y-85021700D01*
X139871376Y-85097194D01*
X139846848Y-85177587D01*
X139827886Y-85255432D01*
X139817087Y-85323280D01*
X139815557Y-85351762D01*
X139807756Y-85426657D01*
X139781532Y-85473595D01*
X139732656Y-85497131D01*
X139675889Y-85502172D01*
X139602574Y-85488276D01*
X139547870Y-85450143D01*
X139517864Y-85393110D01*
X139514021Y-85360273D01*
X139524258Y-85312379D01*
X139557872Y-85265295D01*
X139619221Y-85213517D01*
X139644244Y-85195864D01*
X139678091Y-85159803D01*
X139707938Y-85098138D01*
X139726220Y-85043184D01*
X139749271Y-84963499D01*
X139760046Y-84911761D01*
X139756449Y-84881934D01*
X139736387Y-84867985D01*
X139697765Y-84863876D01*
X139663908Y-84863625D01*
X139581739Y-84870574D01*
X139509141Y-84894517D01*
X139435450Y-84940098D01*
X139375362Y-84989241D01*
X139299772Y-85044698D01*
X139233049Y-85068695D01*
X139170425Y-85062522D01*
X139144979Y-85051649D01*
X139095886Y-85015389D01*
X139073747Y-84965978D01*
X139070585Y-84925089D01*
X139086552Y-84851957D01*
X139131451Y-84794280D01*
X139200779Y-84755658D01*
X139290034Y-84739687D01*
X139302875Y-84739463D01*
X139365645Y-84733902D01*
X139436246Y-84719992D01*
X139457476Y-84714115D01*
X139519158Y-84696269D01*
X139575794Y-84681411D01*
X139592173Y-84677608D01*
X139625740Y-84667445D01*
X139628844Y-84654696D01*
X139618779Y-84643868D01*
X139565742Y-84608674D01*
X139490795Y-84574377D01*
X139407298Y-84545697D01*
X139328610Y-84527356D01*
X139277694Y-84523316D01*
X139219942Y-84522017D01*
X139180286Y-84508393D01*
X139141930Y-84476518D01*
X139140229Y-84474824D01*
X139103253Y-84431019D01*
X139090577Y-84390507D01*
X139100197Y-84340256D01*
X139114007Y-84304365D01*
X139154437Y-84244690D01*
X139211177Y-84214497D01*
X139280638Y-84213901D01*
X139359231Y-84243019D01*
X139434020Y-84294077D01*
X139499049Y-84339268D01*
X139573487Y-84378997D01*
X139610994Y-84394177D01*
X139666428Y-84411823D01*
X139701041Y-84417307D01*
X139727267Y-84410813D01*
X139751835Y-84396289D01*
X139787282Y-84353391D01*
X139798032Y-84291364D01*
X139784913Y-84215716D01*
X139748754Y-84131952D01*
X139701172Y-84059339D01*
X139663020Y-83987389D01*
X139657524Y-83918922D01*
X139683531Y-83859224D01*
X139739889Y-83813578D01*
X139756425Y-83805872D01*
X139828600Y-83791092D01*
X139893584Y-83805053D01*
X139944152Y-83843254D01*
X139973079Y-83901193D01*
X139977049Y-83943342D01*
X139975015Y-83980509D01*
X139971045Y-84041466D01*
X139965901Y-84114634D01*
X139964476Y-84134098D01*
X139953506Y-84282574D01*
X140128421Y-84274596D01*
X140219731Y-84268714D01*
X140287630Y-84259164D01*
X140344165Y-84243448D01*
X140401382Y-84219068D01*
X140405327Y-84217165D01*
X140468244Y-84182329D01*
X140500469Y-84149572D01*
X140505367Y-84111047D01*
X140486301Y-84058907D01*
X140479221Y-84044821D01*
X140445966Y-83972369D01*
X140412012Y-83884736D01*
X140380395Y-83791489D01*
X140354153Y-83702194D01*
X140336325Y-83626419D01*
X140329943Y-83574688D01*
X140336304Y-83511279D01*
X140360543Y-83461161D01*
X140382603Y-83433680D01*
X140417739Y-83383576D01*
X140422571Y-83340528D01*
X140397261Y-83293425D01*
X140384893Y-83278111D01*
X140350568Y-83247804D01*
X140300641Y-83222681D01*
X140229557Y-83200863D01*
X140131760Y-83180467D01*
X140061790Y-83168735D01*
X139962428Y-83149359D01*
X139855289Y-83122580D01*
X139758344Y-83093068D01*
X139726770Y-83081668D01*
X139651100Y-83053774D01*
X139580451Y-83029814D01*
X139526673Y-83013740D01*
X139513921Y-83010685D01*
X139416541Y-82976055D01*
X139323485Y-82917332D01*
X139240444Y-82840979D01*
X139173114Y-82753455D01*
X139127187Y-82661222D01*
X139108356Y-82570739D01*
X139108470Y-82550575D01*
X139106752Y-82516155D01*
X139097424Y-82473459D01*
X139079082Y-82419411D01*
X139050325Y-82350936D01*
X139009751Y-82264959D01*
X138955957Y-82158404D01*
X138887541Y-82028195D01*
X138803102Y-81871258D01*
X138776151Y-81821655D01*
X138723776Y-81724083D01*
X138675134Y-81630986D01*
X138633771Y-81549342D01*
X138603234Y-81486128D01*
X138588944Y-81453413D01*
X138568765Y-81374555D01*
X138558410Y-81276506D01*
X138558128Y-81173583D01*
X138568169Y-81080106D01*
X138581507Y-81027869D01*
X138635647Y-80923738D01*
X138717774Y-80839201D01*
X138789088Y-80792430D01*
X138832331Y-80769578D01*
X138869586Y-80754576D01*
X138910000Y-80745864D01*
X138962716Y-80741883D01*
X139036879Y-80741073D01*
X139088323Y-80741399D01*
X139154348Y-80742379D01*
X139211255Y-80744974D01*
X139264398Y-80750507D01*
X139319135Y-80760303D01*
X139380822Y-80775684D01*
X139454814Y-80797975D01*
X139546469Y-80828499D01*
X139661142Y-80868579D01*
X139792807Y-80915469D01*
X139859483Y-80936355D01*
X139939070Y-80956870D01*
X140023524Y-80975490D01*
X140104801Y-80990693D01*
X140174855Y-81000952D01*
X140225642Y-81004745D01*
X140247782Y-81001670D01*
X140302551Y-80982134D01*
X140376733Y-80973859D01*
X140455719Y-80978061D01*
X140480096Y-80982340D01*
X140601539Y-81019972D01*
X140708381Y-81076226D01*
X140794284Y-81146694D01*
X140852911Y-81226973D01*
X140862652Y-81248279D01*
X140886408Y-81290441D01*
X140926791Y-81346355D01*
X140975463Y-81404566D01*
X140980119Y-81409694D01*
X141105650Y-81570785D01*
X141200871Y-81747800D01*
X141262571Y-81923912D01*
X141285526Y-82003860D01*
X141303595Y-82055855D01*
X141320070Y-82086465D01*
X141338240Y-82102255D01*
X141354999Y-82108333D01*
X141396777Y-82111224D01*
X141421089Y-82103632D01*
X141442597Y-82087127D01*
X141486004Y-82053448D01*
X141545275Y-82007289D01*
X141614376Y-81953343D01*
X141624003Y-81945817D01*
X141694677Y-81891375D01*
X141757302Y-81844628D01*
X141805572Y-81810181D01*
X141833180Y-81792638D01*
X141834869Y-81791861D01*
X141865402Y-81786202D01*
X141921118Y-81781640D01*
X141991731Y-81778926D01*
X142017203Y-81778558D01*
X142104813Y-81774459D01*
X142185783Y-81764714D01*
X142246011Y-81751044D01*
X142247790Y-81750439D01*
X142294688Y-81732129D01*
X142358254Y-81704531D01*
X142431641Y-81670957D01*
X142508004Y-81634721D01*
X142580498Y-81599133D01*
X142642277Y-81567508D01*
X142686496Y-81543156D01*
X142706310Y-81529391D01*
X142706758Y-81528354D01*
X142691939Y-81516442D01*
X142652595Y-81493940D01*
X142596397Y-81465151D01*
X142579684Y-81457030D01*
X142502049Y-81416888D01*
X142422060Y-81371036D01*
X142358875Y-81330629D01*
X142305081Y-81294993D01*
X142265012Y-81276647D01*
X142224105Y-81271473D01*
X142167800Y-81275350D01*
X142164645Y-81275674D01*
X142106463Y-81283360D01*
X142072789Y-81295156D01*
X142052708Y-81317098D01*
X142039575Y-81344866D01*
X142025838Y-81395975D01*
X142016918Y-81464145D01*
X142014999Y-81509691D01*
X142011797Y-81577926D01*
X141999902Y-81624082D01*
X141975879Y-81661164D01*
X141974591Y-81662673D01*
X141921593Y-81701537D01*
X141860835Y-81712797D01*
X141801092Y-81699559D01*
X141751139Y-81664929D01*
X141719753Y-81612014D01*
X141713462Y-81570239D01*
X141723609Y-81521684D01*
X141748636Y-81476135D01*
X141780421Y-81445929D01*
X141799005Y-81440301D01*
X141814625Y-81425798D01*
X141838396Y-81388768D01*
X141853321Y-81360765D01*
X141876365Y-81309822D01*
X141882920Y-81275363D01*
X141874754Y-81243454D01*
X141869637Y-81232168D01*
X141835263Y-81188727D01*
X141787742Y-81176562D01*
X141725942Y-81195722D01*
X141654688Y-81241678D01*
X141577031Y-81298718D01*
X141519337Y-81333839D01*
X141474756Y-81348355D01*
X141436440Y-81343576D01*
X141397541Y-81320817D01*
X141368200Y-81296564D01*
X141324729Y-81250134D01*
X141307091Y-81205838D01*
X141305763Y-81185705D01*
X141320519Y-81105668D01*
X141361615Y-81044260D01*
X141401362Y-81017005D01*
X141434471Y-81004761D01*
X141469783Y-81002823D01*
X141519222Y-81011629D01*
X141563082Y-81022913D01*
X141647305Y-81043009D01*
X141704029Y-81048342D01*
X141738623Y-81037494D01*
X141756458Y-81009047D01*
X141762434Y-80970259D01*
X141762240Y-80920129D01*
X141755973Y-80884443D01*
X141753565Y-80879595D01*
X141730111Y-80868136D01*
X141681847Y-80857300D01*
X141621646Y-80849685D01*
X141507075Y-80830768D01*
X141423377Y-80795849D01*
X141369305Y-80743983D01*
X141343612Y-80674227D01*
X141340976Y-80637289D01*
X141352990Y-80551600D01*
X141385954Y-80491107D01*
X141435255Y-80456407D01*
X141496281Y-80448099D01*
X141564417Y-80466783D01*
X141635051Y-80513058D01*
X141703569Y-80587523D01*
X141705378Y-80589972D01*
X141755066Y-80650287D01*
X141797597Y-80681936D01*
X141840293Y-80688636D01*
X141879625Y-80678482D01*
X141913054Y-80658073D01*
X141925401Y-80623132D01*
X141926312Y-80600858D01*
X141921223Y-80545835D01*
X141908323Y-80491584D01*
X141891164Y-80449146D01*
X141873296Y-80429559D01*
X141871115Y-80429267D01*
X141847115Y-80420343D01*
X141807061Y-80398073D01*
X141793204Y-80389358D01*
X141733244Y-80332666D01*
X141705550Y-80261349D01*
X141710297Y-80175904D01*
X141713369Y-80163551D01*
X141746154Y-80094406D01*
X141796155Y-80049248D01*
X141856798Y-80026549D01*
X141921511Y-80024777D01*
X141983721Y-80042403D01*
G37*
D13*
%TO.C,J2*%
X130724600Y-59343600D02*
X130724600Y-58013600D01*
X132054600Y-59343600D02*
X130724600Y-59343600D01*
X133324600Y-59343600D02*
X156244600Y-59343600D01*
X133324600Y-59343600D02*
X133324600Y-56683600D01*
X156244600Y-59343600D02*
X156244600Y-56683600D01*
X133324600Y-56683600D02*
X156244600Y-56683600D01*
%TD*%
M02*
