%TF.GenerationSoftware,KiCad,Pcbnew,7.0.7*%
%TF.CreationDate,2024-03-08T17:36:46-05:00*%
%TF.ProjectId,MemcardBreakout,4d656d63-6172-4644-9272-65616b6f7574,rev?*%
%TF.SameCoordinates,Original*%
%TF.FileFunction,Copper,L1,Top*%
%TF.FilePolarity,Positive*%
%FSLAX46Y46*%
G04 Gerber Fmt 4.6, Leading zero omitted, Abs format (unit mm)*
G04 Created by KiCad (PCBNEW 7.0.7) date 2024-03-08 17:36:46*
%MOMM*%
%LPD*%
G01*
G04 APERTURE LIST*
%TA.AperFunction,ComponentPad*%
%ADD10R,1.700000X1.700000*%
%TD*%
%TA.AperFunction,ComponentPad*%
%ADD11O,1.700000X1.700000*%
%TD*%
%TA.AperFunction,SMDPad,CuDef*%
%ADD12R,1.187403X3.771756*%
%TD*%
%TA.AperFunction,SMDPad,CuDef*%
%ADD13R,1.187403X4.679771*%
%TD*%
%TA.AperFunction,SMDPad,CuDef*%
%ADD14R,1.187403X4.190840*%
%TD*%
%TA.AperFunction,SMDPad,CuDef*%
%ADD15R,1.187403X3.143131*%
%TD*%
%TA.AperFunction,ViaPad*%
%ADD16C,0.800000*%
%TD*%
%TA.AperFunction,Conductor*%
%ADD17C,0.250000*%
%TD*%
%TA.AperFunction,Conductor*%
%ADD18C,0.800000*%
%TD*%
G04 APERTURE END LIST*
D10*
%TO.P,J2,1,Pin_1*%
%TO.N,/CLK*%
X132054600Y-58013600D03*
D11*
%TO.P,J2,2,Pin_2*%
%TO.N,/GND*%
X134594600Y-58013600D03*
%TO.P,J2,3,Pin_3*%
%TO.N,/CS*%
X137134600Y-58013600D03*
%TO.P,J2,4,Pin_4*%
%TO.N,Net-(J1-3V3@8)*%
X139674600Y-58013600D03*
%TO.P,J2,5,Pin_5*%
%TO.N,/DI*%
X142214600Y-58013600D03*
%TO.P,J2,6,Pin_6*%
%TO.N,/5V*%
X144754600Y-58013600D03*
%TO.P,J2,7,Pin_7*%
%TO.N,/DO*%
X147294600Y-58013600D03*
%TO.P,J2,8,Pin_8*%
%TO.N,Net-(J1-3V3@4)*%
X149834600Y-58013600D03*
%TO.P,J2,9,Pin_9*%
%TO.N,/INT*%
X152374600Y-58013600D03*
%TO.P,J2,10,Pin_10*%
%TO.N,/GND*%
X154914600Y-58013600D03*
%TD*%
D12*
%TO.P,J1,1,EXTIN*%
%TO.N,Net-(J1-EXTIN)*%
X151450200Y-97837400D03*
D13*
%TO.P,J1,2,GND@2*%
%TO.N,/GND*%
X150000200Y-102637400D03*
D14*
%TO.P,J1,3,INT*%
%TO.N,/INT*%
X148500200Y-98037400D03*
%TO.P,J1,4,3V3@4*%
%TO.N,Net-(J1-3V3@4)*%
X147100200Y-102387400D03*
%TO.P,J1,5,DO*%
%TO.N,/DO*%
X145650200Y-98037400D03*
%TO.P,J1,6,5V*%
%TO.N,/5V*%
X144200200Y-102387400D03*
%TO.P,J1,7,DI*%
%TO.N,/DI*%
X142700200Y-98037400D03*
%TO.P,J1,8,3V3@8*%
%TO.N,Net-(J1-3V3@8)*%
X141300200Y-102387400D03*
%TO.P,J1,9,CS*%
%TO.N,/CS*%
X139850200Y-98037400D03*
D13*
%TO.P,J1,10,GND@10*%
%TO.N,/GND*%
X138400200Y-102587400D03*
D14*
%TO.P,J1,11,CLK*%
%TO.N,/CLK*%
X136900200Y-98037400D03*
D15*
%TO.P,J1,12,EXTOUT*%
%TO.N,Net-(J1-EXTIN)*%
X135500200Y-101837400D03*
%TD*%
D16*
%TO.N,Net-(J1-EXTIN)*%
X151409400Y-95275400D03*
X135432800Y-95275400D03*
%TO.N,/GND*%
X150037800Y-91871800D03*
X129387600Y-60401200D03*
X138379200Y-92075000D03*
X129413000Y-80746600D03*
X157429200Y-73253600D03*
X157607000Y-80467200D03*
X129489200Y-73736200D03*
X129362200Y-66319400D03*
X157530800Y-60655200D03*
X157556200Y-89382600D03*
X129565400Y-89458800D03*
X157378400Y-65760600D03*
%TD*%
D17*
%TO.N,Net-(J1-EXTIN)*%
X135500200Y-101837400D02*
X135500200Y-95342800D01*
X151409400Y-95275400D02*
X151450200Y-95316200D01*
X135500200Y-95342800D02*
X135432800Y-95275400D01*
X151450200Y-95316200D02*
X151450200Y-97837400D01*
%TO.N,/GND*%
X150000200Y-102637400D02*
X150000200Y-91909400D01*
X150000200Y-91909400D02*
X150037800Y-91871800D01*
X154914600Y-83947000D02*
X154914600Y-58013600D01*
X134594600Y-58013600D02*
X134594600Y-83616800D01*
X150000200Y-91834200D02*
X150000200Y-88861400D01*
X134594600Y-83616800D02*
X138400200Y-87422400D01*
X138400200Y-87422400D02*
X138400200Y-92054000D01*
X138400200Y-92054000D02*
X138379200Y-92075000D01*
X138379200Y-92075000D02*
X138400200Y-92096000D01*
X150000200Y-88861400D02*
X154914600Y-83947000D01*
X150037800Y-91871800D02*
X150000200Y-91834200D01*
X138400200Y-92096000D02*
X138400200Y-102587400D01*
%TO.N,/INT*%
X152374600Y-83693000D02*
X152374600Y-58013600D01*
X148500200Y-98037400D02*
X148500200Y-87567400D01*
X148500200Y-87567400D02*
X152374600Y-83693000D01*
%TO.N,/DO*%
X145650200Y-98037400D02*
X145650200Y-84677000D01*
X145650200Y-84677000D02*
X147294600Y-83032600D01*
X147294600Y-83032600D02*
X147294600Y-58013600D01*
D18*
%TO.N,/5V*%
X144729200Y-82702400D02*
X144729200Y-58039000D01*
X144200200Y-83231400D02*
X144729200Y-82702400D01*
X144200200Y-102387400D02*
X144200200Y-83231400D01*
X144729200Y-58039000D02*
X144754600Y-58013600D01*
D17*
%TO.N,/DI*%
X142700200Y-98037400D02*
X142700200Y-58499200D01*
X142700200Y-58499200D02*
X142214600Y-58013600D01*
%TO.N,/CS*%
X137160000Y-84074000D02*
X137160000Y-58039000D01*
X137160000Y-58039000D02*
X137134600Y-58013600D01*
X139850200Y-98037400D02*
X139850200Y-86764200D01*
X139850200Y-86764200D02*
X137160000Y-84074000D01*
%TO.N,/CLK*%
X136900200Y-98037400D02*
X136900200Y-88310000D01*
X136900200Y-88310000D02*
X132054600Y-83464400D01*
X132054600Y-83464400D02*
X132054600Y-58013600D01*
D18*
%TO.N,Net-(J1-3V3@4)*%
X147100200Y-86427400D02*
X149961600Y-83566000D01*
X147100200Y-102387400D02*
X147100200Y-86427400D01*
D17*
X149961600Y-58140600D02*
X149834600Y-58013600D01*
D18*
X149961600Y-83566000D02*
X149961600Y-58140600D01*
%TO.N,Net-(J1-3V3@8)*%
X141300200Y-102387400D02*
X141300200Y-84480400D01*
X141300200Y-84480400D02*
X139674600Y-82854800D01*
X139674600Y-82854800D02*
X139674600Y-58013600D01*
%TD*%
%TA.AperFunction,Conductor*%
%TO.N,/GND*%
G36*
X158489339Y-55947175D02*
G01*
X158535094Y-55999979D01*
X158546300Y-56051490D01*
X158546300Y-90303310D01*
X158526615Y-90370349D01*
X158473811Y-90416104D01*
X158422300Y-90427310D01*
X152772740Y-90427310D01*
X152772534Y-90427269D01*
X152747980Y-90427269D01*
X152747881Y-90427310D01*
X152747597Y-90427426D01*
X152747595Y-90427428D01*
X152747439Y-90427809D01*
X152747456Y-90452426D01*
X152747451Y-90452426D01*
X152747480Y-90452569D01*
X152747480Y-105342650D01*
X152727795Y-105409689D01*
X152674991Y-105455444D01*
X152623480Y-105466650D01*
X134472720Y-105466650D01*
X134405681Y-105446965D01*
X134359926Y-105394161D01*
X134348720Y-105342650D01*
X134348720Y-90452569D01*
X134348748Y-90452426D01*
X134348744Y-90452426D01*
X134348759Y-90427812D01*
X134348761Y-90427810D01*
X134348682Y-90427618D01*
X134348604Y-90427428D01*
X134348602Y-90427426D01*
X134348319Y-90427310D01*
X134348220Y-90427269D01*
X134323666Y-90427269D01*
X134323460Y-90427310D01*
X128671360Y-90427310D01*
X128604321Y-90407625D01*
X128558566Y-90354821D01*
X128547360Y-90303310D01*
X128547360Y-58883352D01*
X131004100Y-58883352D01*
X131015731Y-58941829D01*
X131015732Y-58941830D01*
X131060047Y-59008152D01*
X131126369Y-59052467D01*
X131126370Y-59052468D01*
X131184847Y-59064099D01*
X131184850Y-59064100D01*
X131184852Y-59064100D01*
X131605100Y-59064100D01*
X131672139Y-59083785D01*
X131717894Y-59136589D01*
X131729100Y-59188100D01*
X131729100Y-83447478D01*
X131728864Y-83452885D01*
X131725335Y-83493208D01*
X131735812Y-83532310D01*
X131736983Y-83537590D01*
X131744011Y-83577443D01*
X131745835Y-83582455D01*
X131752797Y-83599261D01*
X131755045Y-83604081D01*
X131755046Y-83604084D01*
X131769052Y-83624087D01*
X131778255Y-83637231D01*
X131781161Y-83641792D01*
X131801406Y-83676855D01*
X131832415Y-83702875D01*
X131836405Y-83706531D01*
X136538381Y-88408507D01*
X136571866Y-88469830D01*
X136574700Y-88496188D01*
X136574700Y-95617480D01*
X136555015Y-95684519D01*
X136502211Y-95730274D01*
X136450700Y-95741480D01*
X136286745Y-95741480D01*
X136228268Y-95753111D01*
X136228267Y-95753112D01*
X136161945Y-95797427D01*
X136117630Y-95863749D01*
X136117629Y-95863750D01*
X136105998Y-95922227D01*
X136105998Y-99941334D01*
X136086313Y-100008373D01*
X136033509Y-100054128D01*
X135981998Y-100065334D01*
X135949700Y-100065334D01*
X135882661Y-100045649D01*
X135836906Y-99992845D01*
X135825700Y-99941334D01*
X135825700Y-95790426D01*
X135845385Y-95723387D01*
X135857434Y-95708433D01*
X135861076Y-95703686D01*
X135861082Y-95703682D01*
X135957336Y-95578241D01*
X136017844Y-95432162D01*
X136038482Y-95275400D01*
X136017844Y-95118638D01*
X135957336Y-94972559D01*
X135861082Y-94847118D01*
X135735641Y-94750864D01*
X135589562Y-94690356D01*
X135589560Y-94690355D01*
X135432801Y-94669718D01*
X135432799Y-94669718D01*
X135276039Y-94690355D01*
X135276037Y-94690356D01*
X135129960Y-94750863D01*
X135004518Y-94847118D01*
X134908263Y-94972560D01*
X134847756Y-95118637D01*
X134847755Y-95118639D01*
X134827118Y-95275398D01*
X134827118Y-95275401D01*
X134847755Y-95432160D01*
X134847756Y-95432162D01*
X134908264Y-95578241D01*
X135004518Y-95703682D01*
X135068937Y-95753112D01*
X135126186Y-95797041D01*
X135167389Y-95853469D01*
X135174700Y-95895417D01*
X135174700Y-99941334D01*
X135155015Y-100008373D01*
X135102211Y-100054128D01*
X135050700Y-100065334D01*
X134886745Y-100065334D01*
X134828268Y-100076965D01*
X134828267Y-100076966D01*
X134761945Y-100121281D01*
X134717630Y-100187603D01*
X134717629Y-100187604D01*
X134705998Y-100246081D01*
X134705998Y-103428718D01*
X134717629Y-103487195D01*
X134717630Y-103487196D01*
X134761945Y-103553518D01*
X134828267Y-103597833D01*
X134828268Y-103597834D01*
X134886745Y-103609465D01*
X134886748Y-103609466D01*
X134886750Y-103609466D01*
X136113652Y-103609466D01*
X136113653Y-103609465D01*
X136128470Y-103606518D01*
X136172131Y-103597834D01*
X136172131Y-103597833D01*
X136172133Y-103597833D01*
X136238454Y-103553518D01*
X136282769Y-103487197D01*
X136282769Y-103487195D01*
X136282770Y-103487195D01*
X136294401Y-103428718D01*
X136294402Y-103428716D01*
X136294402Y-100457320D01*
X136314087Y-100390281D01*
X136366891Y-100344526D01*
X136418402Y-100333320D01*
X137513652Y-100333320D01*
X137513653Y-100333319D01*
X137528470Y-100330372D01*
X137572131Y-100321688D01*
X137572131Y-100321687D01*
X137572133Y-100321687D01*
X137638454Y-100277372D01*
X137682769Y-100211051D01*
X137682769Y-100211049D01*
X137682770Y-100211049D01*
X137694401Y-100152572D01*
X137694402Y-100152570D01*
X137694402Y-95922229D01*
X137694401Y-95922227D01*
X137682770Y-95863750D01*
X137682769Y-95863749D01*
X137638454Y-95797427D01*
X137572132Y-95753112D01*
X137572131Y-95753111D01*
X137513654Y-95741480D01*
X137513650Y-95741480D01*
X137349700Y-95741480D01*
X137282661Y-95721795D01*
X137236906Y-95668991D01*
X137225700Y-95617480D01*
X137225700Y-88326912D01*
X137225936Y-88321506D01*
X137229463Y-88281191D01*
X137218985Y-88242090D01*
X137217818Y-88236830D01*
X137210788Y-88196955D01*
X137210787Y-88196953D01*
X137208960Y-88191933D01*
X137202020Y-88175176D01*
X137199754Y-88170319D01*
X137199754Y-88170316D01*
X137176537Y-88137159D01*
X137173635Y-88132605D01*
X137153394Y-88097545D01*
X137122382Y-88071522D01*
X137118410Y-88067883D01*
X132416419Y-83365892D01*
X132382934Y-83304569D01*
X132380100Y-83278211D01*
X132380100Y-59188100D01*
X132399785Y-59121061D01*
X132452589Y-59075306D01*
X132504100Y-59064100D01*
X132924350Y-59064100D01*
X132924351Y-59064099D01*
X132939168Y-59061152D01*
X132982829Y-59052468D01*
X132982829Y-59052467D01*
X132982831Y-59052467D01*
X133049152Y-59008152D01*
X133093467Y-58941831D01*
X133093467Y-58941829D01*
X133093468Y-58941829D01*
X133105099Y-58883352D01*
X133105100Y-58883350D01*
X133105100Y-58013600D01*
X136079017Y-58013600D01*
X136099299Y-58219532D01*
X136099300Y-58219534D01*
X136159368Y-58417554D01*
X136256915Y-58600050D01*
X136291569Y-58642277D01*
X136388189Y-58760010D01*
X136484809Y-58839302D01*
X136548150Y-58891285D01*
X136730646Y-58988832D01*
X136746495Y-58993639D01*
X136804931Y-59031932D01*
X136833390Y-59095743D01*
X136834500Y-59112299D01*
X136834500Y-84057078D01*
X136834264Y-84062485D01*
X136830735Y-84102808D01*
X136841212Y-84141910D01*
X136842383Y-84147190D01*
X136849411Y-84187043D01*
X136851235Y-84192055D01*
X136858197Y-84208861D01*
X136860445Y-84213681D01*
X136860446Y-84213684D01*
X136874452Y-84233687D01*
X136883655Y-84246831D01*
X136886561Y-84251392D01*
X136906806Y-84286455D01*
X136937815Y-84312475D01*
X136941805Y-84316131D01*
X139488381Y-86862707D01*
X139521866Y-86924030D01*
X139524700Y-86950388D01*
X139524700Y-95617480D01*
X139505015Y-95684519D01*
X139452211Y-95730274D01*
X139400700Y-95741480D01*
X139236745Y-95741480D01*
X139178268Y-95753111D01*
X139178267Y-95753112D01*
X139111945Y-95797427D01*
X139067630Y-95863749D01*
X139067629Y-95863750D01*
X139055998Y-95922227D01*
X139055998Y-100152572D01*
X139067629Y-100211049D01*
X139067630Y-100211050D01*
X139111945Y-100277372D01*
X139178267Y-100321687D01*
X139178268Y-100321688D01*
X139236745Y-100333319D01*
X139236748Y-100333320D01*
X140381998Y-100333320D01*
X140449037Y-100353005D01*
X140494792Y-100405809D01*
X140505998Y-100457320D01*
X140505998Y-104502572D01*
X140517629Y-104561049D01*
X140517630Y-104561050D01*
X140561945Y-104627372D01*
X140628267Y-104671687D01*
X140628268Y-104671688D01*
X140686745Y-104683319D01*
X140686748Y-104683320D01*
X140686750Y-104683320D01*
X141913652Y-104683320D01*
X141913653Y-104683319D01*
X141928470Y-104680372D01*
X141972131Y-104671688D01*
X141972131Y-104671687D01*
X141972133Y-104671687D01*
X142038454Y-104627372D01*
X142082769Y-104561051D01*
X142082769Y-104561049D01*
X142082770Y-104561049D01*
X142094401Y-104502572D01*
X142094402Y-104502570D01*
X142094402Y-100457320D01*
X142114087Y-100390281D01*
X142166891Y-100344526D01*
X142218402Y-100333320D01*
X143281998Y-100333320D01*
X143349037Y-100353005D01*
X143394792Y-100405809D01*
X143405998Y-100457320D01*
X143405998Y-104502572D01*
X143417629Y-104561049D01*
X143417630Y-104561050D01*
X143461945Y-104627372D01*
X143528267Y-104671687D01*
X143528268Y-104671688D01*
X143586745Y-104683319D01*
X143586748Y-104683320D01*
X143586750Y-104683320D01*
X144813652Y-104683320D01*
X144813653Y-104683319D01*
X144828470Y-104680372D01*
X144872131Y-104671688D01*
X144872131Y-104671687D01*
X144872133Y-104671687D01*
X144938454Y-104627372D01*
X144982769Y-104561051D01*
X144982769Y-104561049D01*
X144982770Y-104561049D01*
X144994401Y-104502572D01*
X144994402Y-104502570D01*
X144994402Y-100457320D01*
X145014087Y-100390281D01*
X145066891Y-100344526D01*
X145118402Y-100333320D01*
X146181998Y-100333320D01*
X146249037Y-100353005D01*
X146294792Y-100405809D01*
X146305998Y-100457320D01*
X146305998Y-104502572D01*
X146317629Y-104561049D01*
X146317630Y-104561050D01*
X146361945Y-104627372D01*
X146428267Y-104671687D01*
X146428268Y-104671688D01*
X146486745Y-104683319D01*
X146486748Y-104683320D01*
X146486750Y-104683320D01*
X147713652Y-104683320D01*
X147713653Y-104683319D01*
X147728470Y-104680372D01*
X147772131Y-104671688D01*
X147772131Y-104671687D01*
X147772133Y-104671687D01*
X147838454Y-104627372D01*
X147882769Y-104561051D01*
X147882769Y-104561049D01*
X147882770Y-104561049D01*
X147894401Y-104502572D01*
X147894402Y-104502570D01*
X147894402Y-100457320D01*
X147914087Y-100390281D01*
X147966891Y-100344526D01*
X148018402Y-100333320D01*
X149113652Y-100333320D01*
X149113653Y-100333319D01*
X149128470Y-100330372D01*
X149172131Y-100321688D01*
X149172131Y-100321687D01*
X149172133Y-100321687D01*
X149238454Y-100277372D01*
X149282769Y-100211051D01*
X149282769Y-100211049D01*
X149282770Y-100211049D01*
X149294401Y-100152572D01*
X149294402Y-100152570D01*
X149294402Y-99743030D01*
X150655998Y-99743030D01*
X150667629Y-99801507D01*
X150667630Y-99801508D01*
X150711945Y-99867830D01*
X150778267Y-99912145D01*
X150778268Y-99912146D01*
X150836745Y-99923777D01*
X150836748Y-99923778D01*
X150836750Y-99923778D01*
X152063652Y-99923778D01*
X152063653Y-99923777D01*
X152078470Y-99920830D01*
X152122131Y-99912146D01*
X152122131Y-99912145D01*
X152122133Y-99912145D01*
X152188454Y-99867830D01*
X152232769Y-99801509D01*
X152232769Y-99801507D01*
X152232770Y-99801507D01*
X152244401Y-99743030D01*
X152244402Y-99743028D01*
X152244402Y-95931771D01*
X152244401Y-95931769D01*
X152232770Y-95873292D01*
X152232769Y-95873291D01*
X152188454Y-95806969D01*
X152122132Y-95762654D01*
X152122131Y-95762653D01*
X152063654Y-95751022D01*
X152063650Y-95751022D01*
X152047947Y-95751022D01*
X151980908Y-95731337D01*
X151935153Y-95678533D01*
X151925209Y-95609375D01*
X151933386Y-95579569D01*
X151937724Y-95569094D01*
X151994444Y-95432162D01*
X152015082Y-95275400D01*
X151994444Y-95118638D01*
X151933936Y-94972559D01*
X151837682Y-94847118D01*
X151712241Y-94750864D01*
X151566162Y-94690356D01*
X151566160Y-94690355D01*
X151409401Y-94669718D01*
X151409399Y-94669718D01*
X151252639Y-94690355D01*
X151252637Y-94690356D01*
X151106560Y-94750863D01*
X150981118Y-94847118D01*
X150884863Y-94972560D01*
X150824356Y-95118637D01*
X150824355Y-95118639D01*
X150803718Y-95275398D01*
X150803718Y-95275401D01*
X150824355Y-95432160D01*
X150824356Y-95432162D01*
X150887974Y-95585749D01*
X150885753Y-95586668D01*
X150899337Y-95642700D01*
X150876474Y-95708723D01*
X150821546Y-95751905D01*
X150799670Y-95758397D01*
X150778268Y-95762654D01*
X150778267Y-95762654D01*
X150711945Y-95806969D01*
X150667630Y-95873291D01*
X150667629Y-95873292D01*
X150655998Y-95931769D01*
X150655998Y-99743030D01*
X149294402Y-99743030D01*
X149294402Y-95922229D01*
X149294401Y-95922227D01*
X149282770Y-95863750D01*
X149282769Y-95863749D01*
X149238454Y-95797427D01*
X149172132Y-95753112D01*
X149172131Y-95753111D01*
X149113654Y-95741480D01*
X149113650Y-95741480D01*
X148949700Y-95741480D01*
X148882661Y-95721795D01*
X148836906Y-95668991D01*
X148825700Y-95617480D01*
X148825700Y-87753586D01*
X148845385Y-87686547D01*
X148862014Y-87665910D01*
X152592804Y-83935120D01*
X152596766Y-83931489D01*
X152627794Y-83905455D01*
X152648038Y-83870390D01*
X152650935Y-83865841D01*
X152674154Y-83832684D01*
X152674154Y-83832681D01*
X152676419Y-83827824D01*
X152683347Y-83811099D01*
X152685184Y-83806050D01*
X152685188Y-83806045D01*
X152692219Y-83766162D01*
X152693377Y-83760940D01*
X152703864Y-83721807D01*
X152700335Y-83681481D01*
X152700100Y-83676078D01*
X152700100Y-59104183D01*
X152719785Y-59037144D01*
X152772589Y-58991389D01*
X152776649Y-58989621D01*
X152778545Y-58988834D01*
X152778554Y-58988832D01*
X152961050Y-58891285D01*
X153121010Y-58760010D01*
X153252285Y-58600050D01*
X153349832Y-58417554D01*
X153409900Y-58219534D01*
X153430183Y-58013600D01*
X153409900Y-57807666D01*
X153349832Y-57609646D01*
X153252285Y-57427150D01*
X153200302Y-57363809D01*
X153121010Y-57267189D01*
X152970721Y-57143852D01*
X152961050Y-57135915D01*
X152778554Y-57038368D01*
X152580534Y-56978300D01*
X152580532Y-56978299D01*
X152580534Y-56978299D01*
X152374600Y-56958017D01*
X152168667Y-56978299D01*
X151970643Y-57038369D01*
X151882714Y-57085369D01*
X151788150Y-57135915D01*
X151788148Y-57135916D01*
X151788147Y-57135917D01*
X151628189Y-57267189D01*
X151496917Y-57427147D01*
X151399369Y-57609643D01*
X151339299Y-57807667D01*
X151319017Y-58013600D01*
X151339299Y-58219532D01*
X151339300Y-58219534D01*
X151399368Y-58417554D01*
X151496915Y-58600050D01*
X151531569Y-58642277D01*
X151628189Y-58760010D01*
X151724809Y-58839302D01*
X151788150Y-58891285D01*
X151970646Y-58988832D01*
X151970651Y-58988833D01*
X151972551Y-58989621D01*
X151973396Y-58990301D01*
X151976019Y-58991704D01*
X151975753Y-58992201D01*
X152026955Y-59033462D01*
X152049021Y-59099756D01*
X152049100Y-59104183D01*
X152049100Y-83506811D01*
X152029415Y-83573850D01*
X152012781Y-83594492D01*
X148282003Y-87325270D01*
X148278014Y-87328925D01*
X148247005Y-87354945D01*
X148226762Y-87390006D01*
X148223856Y-87394566D01*
X148200646Y-87427713D01*
X148198406Y-87432517D01*
X148191429Y-87449361D01*
X148189610Y-87454359D01*
X148182583Y-87494211D01*
X148181412Y-87499491D01*
X148170935Y-87538591D01*
X148174464Y-87578913D01*
X148174700Y-87584320D01*
X148174700Y-95617480D01*
X148155015Y-95684519D01*
X148102211Y-95730274D01*
X148050700Y-95741480D01*
X147886749Y-95741480D01*
X147848889Y-95749010D01*
X147779297Y-95742781D01*
X147724121Y-95699917D01*
X147700878Y-95634026D01*
X147700700Y-95627392D01*
X147700700Y-86727496D01*
X147720385Y-86660457D01*
X147737014Y-86639820D01*
X150355523Y-84021310D01*
X150361598Y-84015984D01*
X150389882Y-83994282D01*
X150486136Y-83868841D01*
X150546644Y-83722762D01*
X150562100Y-83605361D01*
X150567282Y-83566001D01*
X150566251Y-83558174D01*
X150562630Y-83530669D01*
X150562099Y-83522567D01*
X150562099Y-82402302D01*
X150562099Y-58827415D01*
X150581784Y-58760380D01*
X150590234Y-58748770D01*
X150712285Y-58600050D01*
X150809832Y-58417554D01*
X150869900Y-58219534D01*
X150890183Y-58013600D01*
X150869900Y-57807666D01*
X150809832Y-57609646D01*
X150712285Y-57427150D01*
X150660302Y-57363809D01*
X150581010Y-57267189D01*
X150430721Y-57143852D01*
X150421050Y-57135915D01*
X150238554Y-57038368D01*
X150040534Y-56978300D01*
X150040532Y-56978299D01*
X150040534Y-56978299D01*
X149853063Y-56959835D01*
X149834600Y-56958017D01*
X149834599Y-56958017D01*
X149628667Y-56978299D01*
X149430643Y-57038369D01*
X149342714Y-57085369D01*
X149248150Y-57135915D01*
X149248148Y-57135916D01*
X149248147Y-57135917D01*
X149088189Y-57267189D01*
X148956917Y-57427147D01*
X148859369Y-57609643D01*
X148799299Y-57807667D01*
X148779017Y-58013599D01*
X148799299Y-58219532D01*
X148799300Y-58219534D01*
X148859368Y-58417554D01*
X148956915Y-58600050D01*
X148991569Y-58642277D01*
X149088189Y-58760010D01*
X149188762Y-58842547D01*
X149248150Y-58891285D01*
X149248152Y-58891286D01*
X149248155Y-58891288D01*
X149265001Y-58900292D01*
X149295551Y-58916621D01*
X149345396Y-58965582D01*
X149361100Y-59025980D01*
X149361100Y-83265902D01*
X149341415Y-83332941D01*
X149324781Y-83353583D01*
X146706296Y-85972068D01*
X146700193Y-85977420D01*
X146671919Y-85999116D01*
X146647750Y-86030615D01*
X146575661Y-86124562D01*
X146575661Y-86124563D01*
X146515157Y-86270634D01*
X146515155Y-86270639D01*
X146494518Y-86427398D01*
X146494518Y-86427399D01*
X146499169Y-86462726D01*
X146499700Y-86470828D01*
X146499700Y-95641084D01*
X146480015Y-95708123D01*
X146427211Y-95753878D01*
X146358053Y-95763822D01*
X146328248Y-95755645D01*
X146322133Y-95753112D01*
X146263654Y-95741480D01*
X146263650Y-95741480D01*
X146099700Y-95741480D01*
X146032661Y-95721795D01*
X145986906Y-95668991D01*
X145975700Y-95617480D01*
X145975700Y-84863187D01*
X145995385Y-84796148D01*
X146012014Y-84775511D01*
X147512804Y-83274720D01*
X147516766Y-83271089D01*
X147547794Y-83245055D01*
X147568038Y-83209990D01*
X147570935Y-83205441D01*
X147594154Y-83172284D01*
X147594154Y-83172281D01*
X147596419Y-83167424D01*
X147603347Y-83150699D01*
X147605184Y-83145650D01*
X147605188Y-83145645D01*
X147612219Y-83105762D01*
X147613377Y-83100540D01*
X147623864Y-83061407D01*
X147620335Y-83021078D01*
X147620100Y-83015675D01*
X147620100Y-59104183D01*
X147639785Y-59037144D01*
X147692589Y-58991389D01*
X147696649Y-58989621D01*
X147698545Y-58988834D01*
X147698554Y-58988832D01*
X147881050Y-58891285D01*
X148041010Y-58760010D01*
X148172285Y-58600050D01*
X148269832Y-58417554D01*
X148329900Y-58219534D01*
X148350183Y-58013600D01*
X148329900Y-57807666D01*
X148269832Y-57609646D01*
X148172285Y-57427150D01*
X148120302Y-57363809D01*
X148041010Y-57267189D01*
X147890721Y-57143852D01*
X147881050Y-57135915D01*
X147698554Y-57038368D01*
X147500534Y-56978300D01*
X147500532Y-56978299D01*
X147500534Y-56978299D01*
X147294600Y-56958017D01*
X147088667Y-56978299D01*
X146890643Y-57038369D01*
X146802714Y-57085369D01*
X146708150Y-57135915D01*
X146708148Y-57135916D01*
X146708147Y-57135917D01*
X146548189Y-57267189D01*
X146416917Y-57427147D01*
X146319369Y-57609643D01*
X146259299Y-57807667D01*
X146239017Y-58013600D01*
X146259299Y-58219532D01*
X146259300Y-58219534D01*
X146319368Y-58417554D01*
X146416915Y-58600050D01*
X146451569Y-58642277D01*
X146548189Y-58760010D01*
X146644809Y-58839302D01*
X146708150Y-58891285D01*
X146890646Y-58988832D01*
X146890651Y-58988833D01*
X146892551Y-58989621D01*
X146893396Y-58990301D01*
X146896019Y-58991704D01*
X146895753Y-58992201D01*
X146946955Y-59033462D01*
X146969021Y-59099756D01*
X146969100Y-59104183D01*
X146969100Y-82846411D01*
X146949415Y-82913450D01*
X146932781Y-82934092D01*
X145432003Y-84434870D01*
X145428014Y-84438525D01*
X145397005Y-84464545D01*
X145376762Y-84499606D01*
X145373856Y-84504166D01*
X145350646Y-84537313D01*
X145348406Y-84542117D01*
X145341429Y-84558961D01*
X145339610Y-84563959D01*
X145332583Y-84603811D01*
X145331412Y-84609091D01*
X145320935Y-84648191D01*
X145324464Y-84688513D01*
X145324700Y-84693920D01*
X145324700Y-95617480D01*
X145305015Y-95684519D01*
X145252211Y-95730274D01*
X145200700Y-95741480D01*
X145036745Y-95741480D01*
X144978266Y-95753112D01*
X144972152Y-95755645D01*
X144902683Y-95763114D01*
X144840204Y-95731839D01*
X144804552Y-95671750D01*
X144800700Y-95641084D01*
X144800700Y-83531495D01*
X144820385Y-83464456D01*
X144837014Y-83443819D01*
X145123122Y-83157711D01*
X145129199Y-83152383D01*
X145157482Y-83130682D01*
X145253736Y-83005241D01*
X145314244Y-82859162D01*
X145329700Y-82741761D01*
X145334882Y-82702400D01*
X145330230Y-82667069D01*
X145329700Y-82658971D01*
X145329700Y-58959247D01*
X145349385Y-58892208D01*
X145375034Y-58863395D01*
X145501010Y-58760010D01*
X145632285Y-58600050D01*
X145729832Y-58417554D01*
X145789900Y-58219534D01*
X145810183Y-58013600D01*
X145789900Y-57807666D01*
X145729832Y-57609646D01*
X145632285Y-57427150D01*
X145580302Y-57363809D01*
X145501010Y-57267189D01*
X145350721Y-57143852D01*
X145341050Y-57135915D01*
X145158554Y-57038368D01*
X144960534Y-56978300D01*
X144960532Y-56978299D01*
X144960534Y-56978299D01*
X144754600Y-56958017D01*
X144548667Y-56978299D01*
X144350643Y-57038369D01*
X144262714Y-57085369D01*
X144168150Y-57135915D01*
X144168148Y-57135916D01*
X144168147Y-57135917D01*
X144008189Y-57267189D01*
X143876917Y-57427147D01*
X143779369Y-57609643D01*
X143719299Y-57807667D01*
X143699017Y-58013600D01*
X143719299Y-58219532D01*
X143719300Y-58219534D01*
X143779368Y-58417554D01*
X143876915Y-58600050D01*
X143915353Y-58646887D01*
X144008187Y-58760007D01*
X144008188Y-58760008D01*
X144008190Y-58760010D01*
X144083365Y-58821704D01*
X144122699Y-58879447D01*
X144128700Y-58917556D01*
X144128700Y-82402302D01*
X144109015Y-82469341D01*
X144092381Y-82489983D01*
X143806296Y-82776068D01*
X143800194Y-82781419D01*
X143771918Y-82803117D01*
X143771917Y-82803118D01*
X143662570Y-82945621D01*
X143662811Y-82947001D01*
X143654163Y-82980465D01*
X143615157Y-83074634D01*
X143615155Y-83074639D01*
X143597936Y-83205434D01*
X143594518Y-83231400D01*
X143599060Y-83265902D01*
X143599169Y-83266726D01*
X143599700Y-83274828D01*
X143599700Y-95673180D01*
X143580015Y-95740219D01*
X143527211Y-95785974D01*
X143458053Y-95795918D01*
X143406810Y-95776283D01*
X143375922Y-95755645D01*
X143372133Y-95753113D01*
X143372132Y-95753112D01*
X143372131Y-95753112D01*
X143372131Y-95753111D01*
X143313654Y-95741480D01*
X143313650Y-95741480D01*
X143149700Y-95741480D01*
X143082661Y-95721795D01*
X143036906Y-95668991D01*
X143025700Y-95617480D01*
X143025700Y-58725552D01*
X143045385Y-58658513D01*
X143053847Y-58646887D01*
X143062642Y-58636168D01*
X143092285Y-58600050D01*
X143189832Y-58417554D01*
X143249900Y-58219534D01*
X143270183Y-58013600D01*
X143249900Y-57807666D01*
X143189832Y-57609646D01*
X143092285Y-57427150D01*
X143040302Y-57363809D01*
X142961010Y-57267189D01*
X142810721Y-57143852D01*
X142801050Y-57135915D01*
X142618554Y-57038368D01*
X142420534Y-56978300D01*
X142420532Y-56978299D01*
X142420534Y-56978299D01*
X142214600Y-56958017D01*
X142008667Y-56978299D01*
X141810643Y-57038369D01*
X141722714Y-57085369D01*
X141628150Y-57135915D01*
X141628148Y-57135916D01*
X141628147Y-57135917D01*
X141468189Y-57267189D01*
X141336917Y-57427147D01*
X141239369Y-57609643D01*
X141179299Y-57807667D01*
X141159017Y-58013600D01*
X141179299Y-58219532D01*
X141179300Y-58219534D01*
X141239368Y-58417554D01*
X141336915Y-58600050D01*
X141371569Y-58642277D01*
X141468189Y-58760010D01*
X141564809Y-58839302D01*
X141628150Y-58891285D01*
X141810646Y-58988832D01*
X142008666Y-59048900D01*
X142008665Y-59048900D01*
X142031163Y-59051115D01*
X142214600Y-59069183D01*
X142238546Y-59066824D01*
X142307190Y-59079842D01*
X142357901Y-59127906D01*
X142374700Y-59190227D01*
X142374700Y-95617480D01*
X142355015Y-95684519D01*
X142302211Y-95730274D01*
X142250700Y-95741480D01*
X142086749Y-95741480D01*
X142048889Y-95749010D01*
X141979297Y-95742781D01*
X141924121Y-95699917D01*
X141900878Y-95634026D01*
X141900700Y-95627392D01*
X141900700Y-84523834D01*
X141901231Y-84515733D01*
X141905883Y-84480400D01*
X141905883Y-84480399D01*
X141900141Y-84436786D01*
X141885244Y-84323638D01*
X141847088Y-84231522D01*
X141824738Y-84177563D01*
X141824738Y-84177562D01*
X141824736Y-84177559D01*
X141752650Y-84083615D01*
X141734366Y-84059786D01*
X141728483Y-84052118D01*
X141700209Y-84030423D01*
X141694112Y-84025077D01*
X140311419Y-82642383D01*
X140277934Y-82581060D01*
X140275100Y-82554702D01*
X140275100Y-58938401D01*
X140294785Y-58871362D01*
X140320432Y-58842551D01*
X140421010Y-58760010D01*
X140552285Y-58600050D01*
X140649832Y-58417554D01*
X140709900Y-58219534D01*
X140730183Y-58013600D01*
X140709900Y-57807666D01*
X140649832Y-57609646D01*
X140552285Y-57427150D01*
X140500302Y-57363809D01*
X140421010Y-57267189D01*
X140270721Y-57143852D01*
X140261050Y-57135915D01*
X140078554Y-57038368D01*
X139880534Y-56978300D01*
X139880532Y-56978299D01*
X139880534Y-56978299D01*
X139674600Y-56958017D01*
X139468667Y-56978299D01*
X139270643Y-57038369D01*
X139182714Y-57085369D01*
X139088150Y-57135915D01*
X139088148Y-57135916D01*
X139088147Y-57135917D01*
X138928189Y-57267189D01*
X138796917Y-57427147D01*
X138699369Y-57609643D01*
X138639299Y-57807667D01*
X138619017Y-58013599D01*
X138639299Y-58219532D01*
X138639300Y-58219534D01*
X138699368Y-58417554D01*
X138796915Y-58600050D01*
X138835353Y-58646887D01*
X138928187Y-58760007D01*
X138928188Y-58760008D01*
X138928190Y-58760010D01*
X139028765Y-58842549D01*
X139068099Y-58900292D01*
X139074100Y-58938401D01*
X139074100Y-82811371D01*
X139073569Y-82819473D01*
X139068918Y-82854799D01*
X139068918Y-82854800D01*
X139074100Y-82894160D01*
X139089555Y-83011560D01*
X139089556Y-83011562D01*
X139147881Y-83152372D01*
X139150064Y-83157641D01*
X139246318Y-83283082D01*
X139274595Y-83304780D01*
X139280685Y-83310120D01*
X140663382Y-84692817D01*
X140696866Y-84754138D01*
X140699700Y-84780496D01*
X140699700Y-95641084D01*
X140680015Y-95708123D01*
X140627211Y-95753878D01*
X140558053Y-95763822D01*
X140528248Y-95755645D01*
X140522133Y-95753112D01*
X140463654Y-95741480D01*
X140463650Y-95741480D01*
X140299700Y-95741480D01*
X140232661Y-95721795D01*
X140186906Y-95668991D01*
X140175700Y-95617480D01*
X140175700Y-86781109D01*
X140175936Y-86775702D01*
X140179463Y-86735391D01*
X140168985Y-86696290D01*
X140167818Y-86691030D01*
X140160788Y-86651155D01*
X140160787Y-86651153D01*
X140158960Y-86646133D01*
X140152020Y-86629376D01*
X140149754Y-86624519D01*
X140149754Y-86624516D01*
X140126537Y-86591359D01*
X140123635Y-86586805D01*
X140103394Y-86551745D01*
X140072382Y-86525722D01*
X140068410Y-86522083D01*
X137521819Y-83975492D01*
X137488334Y-83914169D01*
X137485500Y-83887811D01*
X137485500Y-59091512D01*
X137505185Y-59024473D01*
X137551046Y-58982154D01*
X137721050Y-58891285D01*
X137881010Y-58760010D01*
X138012285Y-58600050D01*
X138109832Y-58417554D01*
X138169900Y-58219534D01*
X138190183Y-58013600D01*
X138169900Y-57807666D01*
X138109832Y-57609646D01*
X138012285Y-57427150D01*
X137960302Y-57363809D01*
X137881010Y-57267189D01*
X137730721Y-57143852D01*
X137721050Y-57135915D01*
X137538554Y-57038368D01*
X137340534Y-56978300D01*
X137340532Y-56978299D01*
X137340534Y-56978299D01*
X137134600Y-56958017D01*
X136928667Y-56978299D01*
X136730643Y-57038369D01*
X136642714Y-57085369D01*
X136548150Y-57135915D01*
X136548148Y-57135916D01*
X136548147Y-57135917D01*
X136388189Y-57267189D01*
X136256917Y-57427147D01*
X136159369Y-57609643D01*
X136099299Y-57807667D01*
X136079017Y-58013600D01*
X133105100Y-58013600D01*
X133105100Y-57143849D01*
X133105099Y-57143847D01*
X133093468Y-57085370D01*
X133093467Y-57085369D01*
X133049152Y-57019047D01*
X132982830Y-56974732D01*
X132982829Y-56974731D01*
X132924352Y-56963100D01*
X132924348Y-56963100D01*
X131184852Y-56963100D01*
X131184847Y-56963100D01*
X131126370Y-56974731D01*
X131126369Y-56974732D01*
X131060047Y-57019047D01*
X131015732Y-57085369D01*
X131015731Y-57085370D01*
X131004100Y-57143847D01*
X131004100Y-58883352D01*
X128547360Y-58883352D01*
X128547360Y-56051490D01*
X128567045Y-55984451D01*
X128619849Y-55938696D01*
X128671360Y-55927490D01*
X158422300Y-55927490D01*
X158489339Y-55947175D01*
G37*
%TD.AperFunction*%
%TD*%
M02*
