M48
; DRILL file {KiCad 7.0.7} date Fri Mar  8 17:36:48 2024
; FORMAT={-:-/ absolute / metric / decimal}
; #@! TF.CreationDate,2024-03-08T17:36:48-05:00
; #@! TF.GenerationSoftware,Kicad,Pcbnew,7.0.7
; #@! TF.FileFunction,Plated,1,2,PTH
FMAT,2
METRIC
; #@! TA.AperFunction,Plated,PTH,ViaDrill
T1C0.400
; #@! TA.AperFunction,Plated,PTH,ComponentDrill
T2C1.000
%
G90
G05
T1
X129.362Y-66.319
X129.388Y-60.401
X129.413Y-80.747
X129.489Y-73.736
X129.565Y-89.459
X135.433Y-95.275
X138.379Y-92.075
X150.038Y-91.872
X151.409Y-95.275
X157.378Y-65.761
X157.429Y-73.254
X157.531Y-60.655
X157.556Y-89.383
X157.607Y-80.467
T2
X132.055Y-58.014
X134.595Y-58.014
X137.135Y-58.014
X139.675Y-58.014
X142.215Y-58.014
X144.755Y-58.014
X147.295Y-58.014
X149.835Y-58.014
X152.375Y-58.014
X154.915Y-58.014
T0
M30
